<?xml version="1.0" encoding="UTF-8"?>
<svg id="Layer_1" xmlns="http://www.w3.org/2000/svg" width="21.83" height="21.83" version="1.1" viewBox="0 0 21.83 21.83">
  <!-- Generator: Adobe Illustrator 29.2.0, SVG Export Plug-In . SVG Version: 2.1.0 Build 108)  -->
  <g>
    <path d="M8.34,18.73" fill="none"/>
    <path d="M16.35,19.03l-.36,2.27c-.01.07-.03.13-.07.19-.08.13-.21.22-.37.25-.03,0-.07.01-.11.01h-.47c-.18-.02-.33-.14-.37-.31l-.21-.95c-.04-.2-.23-.34-.44-.34h-3.86c-.22,0-.41.15-.45.36l-.16.93c-.03.17-.18.3-.37.32h-1.54c-.18-.01-.33-.14-.36-.32l-.16-.93c-.04-.21-.23-.36-.45-.36h-3.85c-.21,0-.4.14-.44.34l-.22.95c-.04.19-.21.32-.41.32h-.43c-.07,0-.14-.01-.21-.04-.17-.07-.3-.21-.34-.4h0l-.36-2.29v-.05s0-.08.03-.11c.05-.08.14-.14.24-.14h15.47c.11,0,.2.06.24.14.02.03.03.07.03.11v.05Z" fill="#333"/>
    <path d="M16.35,18.98H.33s0-.08.03-.11h15.95s.03.07.03.11h0Z" fill="#a8a8a8"/>
    <path d="M8.53,21.41v.34h-.37v-.34c0-.1.08-.18.19-.18.05,0,.1.02.13.05.03.03.05.08.05.12h0Z" fill="#3d3d3d"/>
    <path d="M7.95,21.41v.34h-.37v-.33c0-.1.08-.18.19-.18.05,0,.1.02.13.05.03.03.05.08.05.12Z" fill="#3d3d3d"/>
    <path d="M9.11,21.41v.33h-.37v-.34c0-.1.08-.18.19-.18.05,0,.1.02.13.05.03.03.05.08.05.12v.02Z" fill="#3d3d3d"/>
    <path d="M1.03,21.41v.3c-.17-.07-.3-.21-.34-.4.03-.05.09-.08.15-.08.05,0,.1.02.13.05.03.03.05.08.05.12h0Z" fill="#3d3d3d"/>
    <path d="M1.62,21.41v.33h-.37v-.34c0-.1.08-.18.19-.18.05,0,.1.02.13.05.03.03.05.08.05.12v.02Z" fill="#3d3d3d"/>
    <path d="M15.34,21.41v.34h-.37v-.34c0-.1.08-.18.19-.18.05,0,.1.02.13.05s.05.08.05.12h0Z" fill="#3d3d3d"/>
    <path d="M15.93,21.41v.07c-.08.13-.21.22-.37.25v-.33c0-.1.08-.18.19-.18.05,0,.1.02.13.05s.05.08.05.12v.02Z" fill="#3d3d3d"/>
    <rect x=".33" y="6.88" width=".39" height="11.98" fill="#1b1c1c"/>
    <rect x=".67" y="6.88" width="15.26" height="11.98" fill="#3d3d3d"/>
    <path d="M15.93,6.88S5.58,18.69.67,18.86h15.66l-.39-11.98h-.01Z" fill="#30302f"/>
    <rect x="15.93" y="6.88" width=".39" height="11.98" fill="#1b1c1c"/>
  </g>
  <g>
    <rect x="9.97" y=".47" width="5.72" height="18.39" fill="#9d7945"/>
    <path d="M15.69.47v18.39h-5.08C14.73,18,15.69.47,15.69.47Z" fill="#7f5c32"/>
  </g>
  <g>
    <polygon points="9.55 .78 7.74 18.86 6.89 18.78 8.7 .7 9.55 .78" fill="#9d7945"/>
    <path d="M9.55.78l-1.81,18.08-.76-.07c.7-.8,2.57-18.01,2.57-18.01Z" fill="#7f5c32"/>
  </g>
  <g>
    <polygon points="8.47 .67 6.65 18.75 5.8 18.67 7.61 .59 8.47 .67" fill="#9d7945"/>
    <path d="M8.47.67l-1.81,18.08-.76-.07c.7-.8,2.57-18.01,2.57-18.01Z" fill="#7f5c32"/>
  </g>
  <g>
    <polygon points="7.47 .68 5.66 18.76 4.81 18.68 6.62 .61 7.47 .68" fill="#9d7945"/>
    <path d="M7.47.68l-1.81,18.08-.76-.07c.7-.8,2.57-18.01,2.57-18.01Z" fill="#7f5c32"/>
  </g>
</svg>