<?xml version="1.0" encoding="UTF-8"?>
<svg id="Layer_1" xmlns="http://www.w3.org/2000/svg" width="21.83" height="21.83" version="1.1" viewBox="0 0 21.83 21.83">
  <!-- Generator: Adobe Illustrator 29.2.0, SVG Export Plug-In . SVG Version: 2.1.0 Build 108)  -->
  <g>
    <g>
      <rect x=".32" y="6.43" width="13.59" height=".87" transform="translate(-1.17 12.27) rotate(-77.09)" fill="#999"/>
      <rect x=".66" y="6.78" width="13.53" height=".23" transform="translate(-.95 12.6) rotate(-77.09)" fill="#efeeed"/>
    </g>
    <g>
      <rect x="-1.88" y="6.91" width="13.59" height=".87" transform="translate(-3.34 10.49) rotate(-77.09)" fill="#999"/>
      <rect x="-1.53" y="7.26" width="13.53" height=".23" transform="translate(-3.13 10.83) rotate(-77.09)" fill="#efeeed"/>
    </g>
    <g>
      <rect x="1.22" y="8.05" width="13.59" height="1.74" transform="translate(-2.48 14.74) rotate(-77.09)" fill="#6d502f"/>
      <rect x="1.87" y="8.8" width="13.53" height=".47" transform="translate(-2.1 15.43) rotate(-77.09)" fill="#564330"/>
    </g>
    <g>
      <rect x="-1.15" y="8.93" width="13.59" height="1.74" transform="translate(-5.16 13.11) rotate(-77.09)" fill="#6d502f"/>
      <rect x="-.49" y="9.67" width="13.53" height=".47" transform="translate(-4.79 13.81) rotate(-77.09)" fill="#564330"/>
    </g>
    <g>
      <path d="M9.4,7.29v14.5H.43V7.29c0-.23.19-.42.42-.42h8.13c.23,0,.42.19.42.42Z" fill="#9d7945"/>
      <path d="M9.4,7.29v14.5H.43c7.37-.39,8.55-14.92,8.55-14.92.23,0,.42.19.42.42Z" fill="#7f5c32"/>
    </g>
  </g>
  <rect x="2.4" y="8.03" width="4.66" height="2.85" rx=".29" ry=".29" fill="#d1d1d1"/>
</svg>