<?xml version="1.0" encoding="UTF-8"?>
<svg id="Layer_1" xmlns="http://www.w3.org/2000/svg" version="1.1" viewBox="0 0 24 24">
  <!-- Generator: Adobe Illustrator 29.8.4, SVG Export Plug-In . SVG Version: 2.1.1 Build 6)  -->
  <path d="M23.12,6.02l-6.21-1.28c-.37-.11-.79-.02-1.08.29-.07.08-.13.16-.18.25,0,0,0,0,0,.01-.01.02-.02.05-.03.07,0,.01-.01.02-.02.04,0,.01-.01.03-.02.04-.02.05-.04.11-.05.17l-1.25,6.55c-.12.61.27,1.21.86,1.33.07.01.14.02.21.02.51,0,.97-.37,1.07-.91l.78-4.08c.64,1.21.98,2.57.98,3.99,0,4.58-3.59,8.31-8,8.31s-8-3.73-8-8.31,3.59-8.31,8-8.31c.6,0,1.09-.51,1.09-1.13s-.49-1.13-1.09-1.13C4.57,1.93,0,6.67,0,12.51s4.57,10.58,10.18,10.58,10.18-4.75,10.18-10.58c0-1.77-.42-3.47-1.2-4.99l3.53.73c.59.12,1.17-.28,1.28-.89.12-.61-.27-1.21-.86-1.33Z" fill="#0057b5"/>
  <g>
    <path d="M3.31,13.6c.57.22,1.08.32,1.51.32.3,0,.54-.07.72-.22.18-.15.28-.34.28-.58,0-.2-.08-.35-.23-.45-.15-.1-.38-.15-.69-.15-.09,0-.2,0-.35.02s-.26.02-.33.04l.18-.95,1.65-1.42h-2.07l.24-1.23h3.82l-.24,1.2-1.72,1.39c.4.03.72.19.96.46s.36.61.36,1.02-.12.78-.35,1.1-.55.58-.95.76-.83.27-1.3.27c-.3,0-.61-.04-.91-.11-.3-.07-.59-.18-.85-.31l.25-1.15Z" fill="#e86774"/>
    <path d="M10.39,15.17c-.63,0-1.12-.19-1.47-.58s-.53-.93-.53-1.64c0-.86.12-1.6.35-2.22.24-.62.57-1.1,1-1.42.43-.33.93-.49,1.51-.49.63,0,1.12.19,1.47.58s.52.93.52,1.64c0,.86-.12,1.6-.35,2.22-.24.62-.57,1.1-1,1.42-.43.33-.93.49-1.51.49ZM10.52,13.93c.22,0,.41-.13.58-.38s.3-.59.39-1.02c.09-.43.14-.91.14-1.44,0-.68-.17-1.02-.5-1.02-.22,0-.41.13-.58.38-.17.25-.3.6-.39,1.02-.09.43-.14.91-.14,1.44,0,.68.17,1.02.5,1.02Z" fill="#e86774"/>
  </g>
</svg>