<?xml version="1.0" encoding="UTF-8"?>
<svg id="Layer_1" xmlns="http://www.w3.org/2000/svg" version="1.1" viewBox="0 0 32 32">
  <!-- Generator: Adobe Illustrator 29.8.4, SVG Export Plug-In . SVG Version: 2.1.1 Build 6)  -->
  <path d="M28.81,6.2c1.02,0,1.6,1.16.99,1.98l-12.81,17.12c-.49.66-1.49.66-1.98,0L2.2,8.18c-.61-.82-.03-1.98.99-1.98h25.62Z" fill="#79d1f4"/>
  <path d="M3.19,4.91h25.62c.96,0,1.83.53,2.26,1.4.43.86.34,1.87-.24,2.65l-12.81,17.12c-.48.64-1.22,1.01-2.02,1.01s-1.54-.37-2.02-1.01L1.17,8.95c-.58-.77-.67-1.78-.24-2.65.43-.86,1.3-1.4,2.26-1.4ZM28.7,7.49H3.3l12.7,16.98L28.7,7.49Z" fill="#06a0b3"/>
</svg>