<?xml version="1.0" encoding="UTF-8"?>
<svg id="Layer_1" xmlns="http://www.w3.org/2000/svg" version="1.1" viewBox="0 0 24 24">
  <!-- Generator: Adobe Illustrator 29.8.4, SVG Export Plug-In . SVG Version: 2.1.1 Build 6)  -->
  <defs>
    <style>
      .st0 {
        fill: #9d7945;
      }

      .st1 {
        fill: none;
      }

      .st2 {
        fill: #1b1c1c;
      }

      .st3 {
        fill: #333;
      }

      .st4 {
        fill: #a8a8a8;
      }

      .st5 {
        fill: #7f5c32;
      }

      .st6 {
        fill: #3d3d3d;
      }

      .st7 {
        fill: #30302f;
      }
    </style>
  </defs>
  <g>
    <path class="st1" d="M3.9,12.3"/>
    <path class="st3" d="M3.6,20.8l-2.4-.4h-.2c-.1,0-.2-.2-.3-.4v-.6c0-.2.1-.4.3-.4l1-.2c.2,0,.4-.2.4-.5v-4.1c0-.2-.2-.4-.4-.5l-1-.2c-.2,0-.3-.2-.3-.4v-1.6c0-.2.1-.4.3-.4l1-.2c.2,0,.4-.2.4-.5v-4.1c0-.2-.1-.4-.4-.5l-1-.2c-.2,0-.3-.2-.3-.4v-.7c0-.2.2-.3.4-.4h0l2.4-.4h.2s.1.1.1.3v16.5c0,.1,0,.2-.1.3h-.1Z"/>
    <path class="st4" d="M3.6,20.8V3.8h.1v17h-.1Z"/>
    <path class="st6" d="M1,12.5h-.4v-.4h.4c.1,0,.2,0,.2.2s0,.1,0,.1h-.1l-.1.1Z"/>
    <path class="st6" d="M1,11.9h-.4v-.4h.4c.1,0,.2,0,.2.2s0,.1,0,.1h-.1l-.1.1Z"/>
    <path class="st6" d="M1,13.1h-.4v-.4h.4c.1,0,.2,0,.2.2s0,.1,0,.1h-.1l-.1.1Z"/>
    <path class="st6" d="M1,4.5h-.3c0-.2.2-.3.4-.4v.2c0,.2,0,.1,0,.1h-.1v.1Z"/>
    <path class="st6" d="M1,5.1h-.4v-.4h.4c.1,0,.2,0,.2.2s0,.1,0,.1h-.1l-.1.1Z"/>
    <path class="st6" d="M1,19.7h-.4v-.4h.4c.1,0,.2,0,.2.2s0,.1,0,.1h-.1l-.1.1Z"/>
    <path class="st6" d="M1,20.4h0c-.2,0-.3-.2-.3-.4h.4c.1,0,.2,0,.2.2s0,.1,0,.1h-.1l-.2.1Z"/>
    <rect class="st2" x="9.9" y="-2.4" width=".4" height="12.8" transform="translate(14.1 -6.1) rotate(90)"/>
    <rect class="st6" x="2" y="5.8" width="16.2" height="12.8" transform="translate(22.3 2.1) rotate(90)"/>
    <path class="st7" d="M16.5,20.4S3.9,9.4,3.8,4.1v16.7l12.8-.4h-.1Z"/>
    <rect class="st2" x="9.9" y="14.2" width=".4" height="12.8" transform="translate(30.7 10.5) rotate(90)"/>
  </g>
  <g>
    <rect class="st0" x="10.45" y="7.25" width="6.1" height="19.6" transform="translate(30.55 3.55) rotate(90)"/>
    <path class="st5" d="M23.3,20.1H3.7v-5.4c.9,4.4,19.6,5.4,19.6,5.4Z"/>
  </g>
  <g>
    <polygon class="st0" points="23 13.6 3.8 11.7 3.8 10.8 23.1 12.7 23 13.6"/>
    <path class="st5" d="M23,13.6l-19.2-1.9v-.8c.9.7,19.2,2.7,19.2,2.7Z"/>
  </g>
  <g>
    <polygon class="st0" points="23.1 12.4 3.9 10.5 4 9.6 23.2 11.5 23.1 12.4"/>
    <path class="st5" d="M23.1,12.4l-19.2-1.9v-.8c.9.7,19.2,2.7,19.2,2.7Z"/>
  </g>
  <g>
    <polygon class="st0" points="23.1 11.4 3.9 9.4 3.9 8.5 23.2 10.5 23.1 11.4"/>
    <path class="st5" d="M23.1,11.4l-19.2-1.9v-.8c.9.7,19.2,2.7,19.2,2.7Z"/>
  </g>
</svg>