<?xml version="1.0" encoding="UTF-8"?>
<svg xmlns="http://www.w3.org/2000/svg" version="1.1" viewBox="0 0 32 32">
  <!-- Generator: Adobe Illustrator 29.8.4, SVG Export Plug-In . SVG Version: 2.1.1 Build 6)  -->
  <g id="Layer_2">
    <rect x="10.99" y="8.13" width=".21" height="8.15" fill="#606161"/>
    <rect x="8.81" y="1.23" width=".21" height="7.34" fill="#606161"/>
    <rect x="16.2" y="1.23" width=".21" height="7.34" fill="#606161"/>
    <rect x="23.58" y="1.23" width=".21" height="7.34" fill="#606161"/>
    <rect x="8.81" y="22.65" width=".21" height="7.84" fill="#606161"/>
    <rect x="16.2" y="22.65" width=".21" height="7.84" fill="#606161"/>
    <rect x="16.2" y="15.54" width=".21" height="7.84" fill="#606161"/>
    <rect x="23.58" y="22.65" width=".21" height="7.84" fill="#606161"/>
    <rect x="20.57" y="8.13" width=".21" height="8.15" fill="#606161"/>
  </g>
  <g id="Layer_1">
    <rect x="1.36" y="29.84" width="28.97" height=".87" fill="#8cc0e3"/>
    <rect x="1.36" y="22.6" width="28.97" height=".87" fill="#8cc0e3"/>
    <rect x="30.33" y="22.49" width=".8" height="9.04" fill="#8d8d8d"/>
    <rect x=".84" y="22.49" width=".8" height="9.04" fill="#8d8d8d"/>
    <rect x="30.93" y="22.49" width=".21" height="9.04" fill="#606161"/>
    <rect x=".84" y="22.49" width=".21" height="9.04" fill="#606161"/>
    <rect x="1.36" y="22.65" width="28.97" height=".87" fill="#8cc0e3"/>
    <rect x="1.36" y="15.4" width="28.97" height=".87" fill="#8cc0e3"/>
    <rect x="30.33" y="15.29" width=".8" height="9.04" fill="#8d8d8d"/>
    <rect x=".84" y="15.29" width=".8" height="9.04" fill="#8d8d8d"/>
    <rect x="30.93" y="15.29" width=".21" height="9.04" fill="#606161"/>
    <rect x=".84" y="15.29" width=".21" height="9.04" fill="#606161"/>
    <rect x="1.36" y="15.32" width="28.97" height=".87" fill="#8cc0e3"/>
    <rect x="1.36" y="8.08" width="28.97" height=".87" fill="#8cc0e3"/>
    <rect x="30.33" y="7.97" width=".8" height="9.04" fill="#8d8d8d"/>
    <rect x=".84" y="7.97" width=".8" height="9.04" fill="#8d8d8d"/>
    <rect x="30.93" y="7.97" width=".21" height="9.04" fill="#606161"/>
    <rect x=".84" y="7.97" width=".21" height="9.04" fill="#606161"/>
    <rect x="1.36" y="8.13" width="28.97" height=".87" fill="#8cc0e3"/>
    <rect x="1.36" y="1.23" width="28.97" height=".09" fill="#606161"/>
    <rect x="30.33" y=".77" width=".8" height="9.04" fill="#8d8d8d"/>
    <rect x=".84" y=".77" width=".8" height="9.04" fill="#8d8d8d"/>
    <rect x="30.93" y=".77" width=".21" height="9.04" fill="#606161"/>
    <rect x=".84" y=".77" width=".21" height="9.04" fill="#606161"/>
  </g>
</svg>