<?xml version="1.0" encoding="UTF-8"?>
<svg id="Layer_1" xmlns="http://www.w3.org/2000/svg" version="1.1" viewBox="0 0 24 24">
  <!-- Generator: Adobe Illustrator 29.8.4, SVG Export Plug-In . SVG Version: 2.1.1 Build 6)  -->
  <path d="M8.64,1.62c-.93-.23-2.08-.46-3.01-.46s-2.08.23-3.01.46c-.81.11-1.39.8-1.5,1.6-.12.92-.46,2.75-.46,4.01s.23,2.86.35,4.01c.12.8.69,1.49,1.5,1.6.81.23,2.08.34,3.01.34s2.08-.23,3.01-.34c.81-.11,1.39-.8,1.5-1.6.23-1.15.35-2.75.35-4.01s-.23-3.09-.35-4.01c0-.8-.58-1.49-1.39-1.6Z" fill="#020e28"/>
  <path d="M21.37,11.93c-.81-.23-2.08-.34-3.01-.34s-2.08.23-3.01.34c-.81.11-1.39.8-1.5,1.6-.23,1.15-.35,2.75-.35,4.01s.23,2.86.35,4.01c.12.8.69,1.49,1.5,1.6.81.23,2.08.34,3.01.34s2.08-.23,3.01-.34c.81-.11,1.39-.8,1.5-1.6.23-1.15.35-2.75.35-4.01s-.12-2.86-.35-4.01c-.12-.8-.69-1.49-1.5-1.6Z" fill="#2f5a91"/>
  <path d="M8.76,16.51c-.93-.23-2.08-.34-3.12-.34s-2.2.23-3.12.34c-.69.11-1.27.69-1.5,1.37-.23.8-.35,1.49-.35,2.06s.12,1.15.35,2.06c.23.69.81,1.15,1.5,1.37.93.23,2.08.34,3.12.34s2.2-.23,3.12-.34c.69-.11,1.27-.69,1.5-1.37.23-.8.35-1.49.35-2.06s-.12-1.15-.35-2.06c-.23-.8-.81-1.26-1.5-1.37Z" fill="#ffc2c5"/>
  <path d="M15.24,8.26c.93.23,2.08.34,3.12.34s2.2-.23,3.12-.34c.69-.11,1.27-.69,1.5-1.37.23-.8.35-1.49.35-2.06s-.12-1.15-.35-2.06c-.23-.69-.81-1.15-1.5-1.37-.93-.23-2.08-.34-3.12-.34s-2.2.23-3.12.34c-.69.11-1.27.69-1.5,1.37-.23.8-.35,1.49-.35,2.06s.12,1.15.35,2.06c.23.8.81,1.26,1.5,1.37Z" fill="#baebfd"/>
</svg>