<?xml version="1.0" encoding="UTF-8"?>
<svg id="Layer_1" xmlns="http://www.w3.org/2000/svg" version="1.1" viewBox="0 0 24 24">
  <!-- Generator: Adobe Illustrator 29.8.4, SVG Export Plug-In . SVG Version: 2.1.1 Build 6)  -->
  <circle cx="13.98" cy="3.5" r="2.83" fill="#ffc5f1"/>
  <path d="M14.54,13.87l-5.22-2.32c-.57-.28-.85.57-1.13,1.13s-2.32,4.08-2.15,4.71c.17.51.62.79,1.08.79.11,0,.23,0,.34-.06l6.97-2.15c.45-.11.79-.57.79-1.02s-.28-.91-.68-1.08h0Z" fill="#004172"/>
  <path d="M13.3,7.01l-1.25-.57c-.74-.34-1.64,0-1.98.74l-6.75,14.51c-.28.57,0,1.25.57,1.53.17.06.34.11.51.11.45,0,.85-.23,1.02-.62,0,0,5.44-7.54,5.9-8.45s2.78-5.27,2.78-5.27c.28-.74,0-1.64-.79-1.98h0Z" fill="#0086ff"/>
  <path d="M21.06,7.29c-.4-.45-1.13-.57-1.59-.17l-2.83,2.38-3.63-1.98c-.62-.34-1.47-.23-1.87.51-.45.74-.23,1.64.45,1.93l4.71,1.93c.17.06.34.11.51.11.28,0,.51-.11.74-.28l3.4-2.83c.45-.4.51-1.08.11-1.59h0ZM4.73,11.49l1.93-2.89,2.61.34.85-1.76c.23-.51.68-.79,1.19-.85h-5.22c-.4,0-.74.17-.96.51l-2.27,3.4c-.34.51-.23,1.25.34,1.59.11.11.34.17.57.17.34,0,.74-.17.96-.51h0Z" fill="#ffc5f1"/>
</svg>