<?xml version="1.0" encoding="UTF-8"?>
<svg id="Layer_1" xmlns="http://www.w3.org/2000/svg" version="1.1" viewBox="0 0 32 32">
  <!-- Generator: Adobe Illustrator 29.8.4, SVG Export Plug-In . SVG Version: 2.1.1 Build 6)  -->
  <g>
    <path d="M9.43,28.13" fill="none"/>
    <path d="M18.31,28.46l-.4,2.52c-.01.08-.03.14-.08.21-.09.14-.23.24-.41.28-.03,0-.08.01-.12.01h-.52c-.2-.02-.37-.16-.41-.34l-.23-1.05c-.04-.22-.25-.38-.49-.38h-4.28c-.24,0-.45.17-.5.4l-.18,1.03c-.03.19-.2.33-.41.35h-1.71c-.2-.01-.37-.16-.4-.35l-.18-1.03c-.04-.23-.25-.4-.5-.4H3.24c-.23,0-.44.16-.49.38l-.24,1.05c-.04.21-.23.35-.45.35h-.48c-.08,0-.16-.01-.23-.04-.19-.08-.33-.23-.38-.44h0l-.4-2.54v-.06s0-.09.03-.12c.06-.09.16-.16.27-.16h17.14c.12,0,.22.07.27.16.02.03.03.08.03.12,0,0,0,.06,0,.06Z" fill="#333"/>
    <path d="M18.31,28.4H.56s0-.09.03-.12h17.67s.03.08.03.12h.01Z" fill="#a8a8a8"/>
    <path d="M9.64,31.1v.38h-.41v-.38c0-.11.09-.2.21-.2.06,0,.11.02.14.06.03.03.06.09.06.13h0Z" fill="#3d3d3d"/>
    <path d="M9,31.1v.38h-.41v-.37c0-.11.09-.2.21-.2.06,0,.11.02.14.06.03.03.06.09.06.13Z" fill="#3d3d3d"/>
    <path d="M10.29,31.1v.37h-.41v-.38c0-.11.09-.2.21-.2.06,0,.11.02.14.06.03.03.06.09.06.13v.02Z" fill="#3d3d3d"/>
    <path d="M1.33,31.1v.33c-.19-.08-.33-.23-.38-.44.03-.06.1-.09.17-.09.06,0,.11.02.14.06.03.03.06.09.06.13h.01Z" fill="#3d3d3d"/>
    <path d="M1.99,31.1v.37h-.41v-.38c0-.11.09-.2.21-.2.06,0,.11.02.14.06.03.03.06.09.06.13v.02Z" fill="#3d3d3d"/>
    <path d="M17.19,31.1v.38h-.41v-.38c0-.11.09-.2.21-.2.06,0,.11.02.14.06s.06.09.06.13h0Z" fill="#3d3d3d"/>
    <path d="M17.84,31.1v.08c-.09.14-.23.24-.41.28v-.37c0-.11.09-.2.21-.2.06,0,.11.02.14.06s.06.09.06.13v.02Z" fill="#3d3d3d"/>
    <rect x=".56" y="14.99" width=".43" height="13.28" fill="#1b1c1c"/>
    <rect x=".93" y="14.99" width="16.91" height="13.28" fill="#3d3d3d"/>
    <path d="M17.84,14.99S6.37,28.08.93,28.27h17.35l-.43-13.28s-.01,0-.01,0Z" fill="#30302f"/>
    <rect x="17.84" y="14.99" width=".43" height="13.28" fill="#1b1c1c"/>
  </g>
  <g>
    <rect x="11.24" y="7.89" width="6.34" height="20.38" fill="#9d7945"/>
    <path d="M17.58,7.89v20.38h-5.63c4.57-.95,5.63-20.38,5.63-20.38Z" fill="#7f5c32"/>
  </g>
  <g>
    <polygon points="10.77 8.23 8.77 28.27 7.83 28.18 9.83 8.15 10.77 8.23" fill="#9d7945"/>
    <path d="M10.77,8.23l-2.01,20.04-.84-.08c.78-.89,2.85-19.96,2.85-19.96Z" fill="#7f5c32"/>
  </g>
  <g>
    <polygon points="9.58 8.11 7.56 28.15 6.62 28.06 8.62 8.02 9.58 8.11" fill="#9d7945"/>
    <path d="M9.58,8.11l-2.01,20.04-.84-.08c.78-.89,2.85-19.96,2.85-19.96Z" fill="#7f5c32"/>
  </g>
  <g>
    <polygon points="8.47 8.12 6.46 28.16 5.52 28.07 7.53 8.05 8.47 8.12" fill="#9d7945"/>
    <path d="M8.47,8.12l-2.01,20.04-.84-.08c.78-.89,2.85-19.96,2.85-19.96Z" fill="#7f5c32"/>
  </g>
  <g>
    <g>
      <rect x="18.56" y="10.6" width="17.97" height="1.15" transform="translate(10.5 35.54) rotate(-77.09)" fill="#999"/>
      <rect x="19.02" y="11.07" width="17.9" height=".3" transform="translate(10.78 35.98) rotate(-77.09)" fill="#efeeed"/>
    </g>
    <g>
      <rect x="15.66" y="11.23" width="17.97" height="1.15" transform="translate(7.64 33.19) rotate(-77.09)" fill="#999"/>
      <rect x="16.11" y="11.7" width="17.9" height=".3" transform="translate(7.91 33.63) rotate(-77.09)" fill="#efeeed"/>
    </g>
    <g>
      <rect x="19.75" y="12.74" width="17.97" height="2.3" transform="translate(8.77 38.8) rotate(-77.09)" fill="#6d502f"/>
      <rect x="20.62" y="13.73" width="17.9" height=".62" transform="translate(9.27 39.72) rotate(-77.09)" fill="#564330"/>
    </g>
    <g>
      <rect x="16.64" y="13.9" width="17.97" height="2.3" transform="translate(5.22 36.67) rotate(-77.09)" fill="#6d502f"/>
      <rect x="17.49" y="14.89" width="17.9" height=".62" transform="translate(5.71 37.57) rotate(-77.09)" fill="#564330"/>
    </g>
    <g>
      <path d="M30.58,11.74v19.18h-11.86V11.74c0-.3.25-.56.56-.56h10.75c.3,0,.56.25.56.56Z" fill="#9d7945"/>
      <path d="M30.58,11.74v19.18h-11.86c9.75-.52,11.31-19.73,11.31-19.73.3,0,.56.25.56.56Z" fill="#7f5c32"/>
    </g>
  </g>
  <rect x="21.32" y="12.72" width="6.16" height="3.77" rx=".38" ry=".38" fill="#d1d1d1"/>
</svg>