<?xml version="1.0" encoding="UTF-8"?>
<svg id="Esfuerzo" xmlns="http://www.w3.org/2000/svg" version="1.1" viewBox="0 0 32 32">
  <!-- Generator: Adobe Illustrator 29.8.4, SVG Export Plug-In . SVG Version: 2.1.1 Build 6)  -->
  <g id="Esfuerzo1">
    <path d="M9.65,23.42h-2.52c-.45,0-.82-.37-.82-.82v-12.82c0-.45.37-.82.82-.82h2.52c.45,0,.82.37.82.82v12.82c0,.45-.37.82-.82.82Z" fill="#77757e"/>
    <path d="M5.48,21.69h-1.53c-.45,0-.82-.37-.82-.82v-9.37c0-.45.37-.82.82-.82h1.53c.45,0,.82.37.82.82v9.37c0,.45-.37.82-.82.82Z" fill="#acaab1"/>
    <rect x=".41" y="14.34" width="2.73" height="3.68" fill="#3e3b43"/>
    <path d="M22.35,8.95h2.52c.45,0,.82.37.82.82v12.82c0,.45-.37.82-.82.82h-2.52c-.45,0-.82-.37-.82-.82v-12.82c0-.45.37-.82.82-.82Z" fill="#77757e"/>
    <path d="M26.52,10.68h1.53c.45,0,.82.37.82.82v9.37c0,.45-.37.82-.82.82h-1.53c-.45,0-.82-.37-.82-.82v-9.37c0-.45.37-.82.82-.82Z" fill="#acaab1"/>
    <g>
      <rect x="28.86" y="14.34" width="2.73" height="3.68" fill="#3e3b43"/>
      <rect x="10.47" y="14.34" width="11.05" height="3.68" fill="#3e3b43"/>
    </g>
    <g>
      <rect x=".41" y="16.64" width="2.73" height="1.39" fill="#2f2d30"/>
      <rect x="28.86" y="16.64" width="2.73" height="1.39" fill="#2f2d30"/>
      <rect x="10.47" y="16.64" width="11.05" height="1.39" fill="#2f2d30"/>
    </g>
    <g>
      <path d="M9.65,23.42h-2.52c-.45,0-.82-.37-.82-.82v-3c0-.45.37-.82.82-.82h2.52c.45,0,.82.37.82.82v3c0,.45-.37.82-.82.82Z" fill="#57545c"/>
      <path d="M24.87,23.46h-2.52c-.45,0-.82-.37-.82-.82v-3c0-.45.37-.82.82-.82h2.52c.45,0,.82.37.82.82v3c0,.45-.37.82-.82.82Z" fill="#57545c"/>
    </g>
    <g>
      <path d="M26.52,17.96h1.53c.45,0,.82.37.82.82v2.09c0,.45-.37.82-.82.82h-1.53c-.45,0-.82-.37-.82-.82v-2.09c0-.45.37-.82.82-.82Z" fill="#77757e" isolation="isolate" opacity=".43"/>
      <path d="M3.96,17.96h1.53c.45,0,.82.37.82.82v2.09c0,.45-.37.82-.82.82h-1.53c-.45,0-.82-.37-.82-.82v-2.09c0-.45.37-.82.82-.82Z" fill="#77757e" isolation="isolate" opacity=".43"/>
    </g>
  </g>
</svg>