<?xml version="1.0" encoding="UTF-8"?>
<svg id="Layer_1" xmlns="http://www.w3.org/2000/svg" width="32" height="32" version="1.1" viewBox="0 0 32 32">
  <!-- Generator: Adobe Illustrator 29.2.0, SVG Export Plug-In . SVG Version: 2.1.0 Build 108)  -->
  <defs>
    <style>
      .st0 {
        fill: #9d7945;
      }

      .st1 {
        fill: none;
      }

      .st2 {
        fill: #1b1c1c;
      }

      .st3 {
        fill: #333;
      }

      .st4 {
        fill: #a8a8a8;
      }

      .st5 {
        fill: #7f5c32;
      }

      .st6 {
        fill: #3d3d3d;
      }

      .st7 {
        fill: #30302f;
      }
    </style>
  </defs>
  <g>
    <path class="st1" d="M16,27.5"/>
    <path class="st3" d="M27.9,27.9l-.5,3.4c0,.1,0,.2-.1.3-.1.2-.3.3-.5.4,0,0-.1,0-.2,0h-.7c-.3,0-.5-.2-.5-.5l-.3-1.4c0-.3-.3-.5-.7-.5h-5.7c-.3,0-.6.2-.7.5l-.2,1.4c0,.3-.3.4-.5.5h-2.3c-.3,0-.5-.2-.5-.5l-.2-1.4c0-.3-.3-.5-.7-.5h-5.7c-.3,0-.6.2-.7.5l-.3,1.4c0,.3-.3.5-.6.5h-.6c-.1,0-.2,0-.3,0-.3-.1-.4-.3-.5-.6h0l-.5-3.4h0c0,0,0-.2,0-.2,0-.1.2-.2.4-.2h22.9c.2,0,.3,0,.4.2,0,0,0,.1,0,.2,0,0,0,0,0,0Z"/>
    <path class="st4" d="M27.9,27.9H4.1s0-.1,0-.2h23.6s0,.1,0,.2h0Z"/>
    <path class="st6" d="M16.3,31.5v.5h-.5v-.5c0-.1.1-.3.3-.3s.1,0,.2,0c0,0,0,.1,0,.2h0Z"/>
    <path class="st6" d="M15.4,31.5v.5h-.5v-.5c0-.1.1-.3.3-.3s.1,0,.2,0c0,0,0,.1,0,.2Z"/>
    <path class="st6" d="M17.1,31.5v.5h-.5v-.5c0-.1.1-.3.3-.3s.1,0,.2,0c0,0,0,.1,0,.2h0Z"/>
    <path class="st6" d="M5.2,31.5v.4c-.3-.1-.4-.3-.5-.6,0,0,.1-.1.2-.1s.1,0,.2,0c0,0,0,.1,0,.2h0Z"/>
    <path class="st6" d="M6,31.5v.5h-.5v-.5c0-.1.1-.3.3-.3s.1,0,.2,0c0,0,0,.1,0,.2h0Z"/>
    <path class="st6" d="M26.4,31.5v.5h-.5v-.5c0-.1.1-.3.3-.3s.1,0,.2,0,0,.1,0,.2h0Z"/>
    <path class="st6" d="M27.2,31.5h0c-.1.3-.3.4-.5.5v-.5c0-.1.1-.3.3-.3s.1,0,.2,0,0,.1,0,.2h0Z"/>
    <rect class="st2" x="4.1" y="9.9" width=".6" height="17.8"/>
    <rect class="st6" x="4.6" y="9.9" width="22.6" height="17.8"/>
    <path class="st7" d="M27.2,9.9S11.9,27.4,4.6,27.7h23.2l-.6-17.8s0,0,0,0Z"/>
    <rect class="st2" x="27.2" y="9.9" width=".6" height="17.8"/>
  </g>
  <g>
    <rect class="st0" x="18.4" y=".4" width="8.5" height="27.3"/>
    <path class="st5" d="M26.9.4v27.3h-7.5C25.5,26.4,26.9.4,26.9.4Z"/>
  </g>
  <g>
    <polygon class="st0" points="17.8 .9 15.1 27.7 13.9 27.6 16.5 .8 17.8 .9"/>
    <path class="st5" d="M17.8.9l-2.7,26.8h-1.1c1-1.3,3.8-26.8,3.8-26.8Z"/>
  </g>
  <g>
    <polygon class="st0" points="16.2 .7 13.5 27.5 12.2 27.4 14.9 .6 16.2 .7"/>
    <path class="st5" d="M16.2.7l-2.7,26.8h-1.1c1-1.3,3.8-26.8,3.8-26.8Z"/>
  </g>
  <g>
    <polygon class="st0" points="14.7 .7 12 27.5 10.8 27.4 13.5 .6 14.7 .7"/>
    <path class="st5" d="M14.7.7l-2.7,26.8h-1.1c1-1.3,3.8-26.8,3.8-26.8Z"/>
  </g>
</svg>