<?xml version="1.0" encoding="UTF-8"?>
<svg id="Layer_1" xmlns="http://www.w3.org/2000/svg" version="1.1" viewBox="0 0 32 32">
  <!-- Generator: Adobe Illustrator 29.8.4, SVG Export Plug-In . SVG Version: 2.1.1 Build 6)  -->
  <circle cx="16.05" cy="15.93" r="15.85" fill="#dcf9f6"/>
  <path d="M16.05,31.78C7.33,31.78.2,24.65.2,15.93S7.33.08,16.05.08" fill="#95bfb9"/>
  <path d="M16.05,31.78c-8.72,0-11.1-7.13-11.1-15.85S7.25.08,16.05.08" fill="#caede7"/>
  <g>
    <circle cx="5.03" cy="7.53" r=".95" fill="#78a8a0"/>
    <circle cx="3.69" cy="11.1" r=".16" fill="#78a8a0"/>
  </g>
  <g>
    <circle cx="10.11" cy="13.16" r="2.93" fill="#dcf9f6"/>
    <circle cx="11.37" cy="6.74" r=".79" fill="#dcf9f6"/>
  </g>
  <circle cx="16.84" cy="6.34" r=".24" fill="#c3e5e0"/>
  <circle cx="18.9" cy="3.65" r=".24" fill="#78a8a0"/>
  <circle cx="11.29" cy="3.8" r=".4" fill="#dcf9f6"/>
  <circle cx="14.46" cy="2.46" r=".16" fill="#95bfb9"/>
  <g>
    <circle cx="18.11" cy="11.57" r=".63" fill="#c3e5e0"/>
    <circle cx="22.87" cy="11.17" r=".4" fill="#c3e5e0"/>
    <circle cx="23.9" cy="6.66" r=".63" fill="#c3e5e0"/>
    <circle cx="21.12" cy="19.42" r="1.74" fill="#c3e5e0"/>
  </g>
  <g>
    <circle cx="6.78" cy="20.45" r=".55" fill="#dcf9f6"/>
    <circle cx="12.48" cy="18.07" r=".24" fill="#dcf9f6"/>
    <circle cx="15.26" cy="24.01" r=".95" fill="#dcf9f6"/>
  </g>
  <circle cx="3.69" cy="16.41" r=".63" fill="#78a8a0"/>
  <circle cx="17.79" cy="16.01" r=".16" fill="#c3e5e0"/>
  <circle cx="25.4" cy="16.33" r=".4" fill="#95bfb9"/>
  <g>
    <circle cx="8.6" cy="24.81" r=".95" fill="#dcf9f6"/>
    <circle cx="10.5" cy="21.4" r=".32" fill="#dcf9f6"/>
  </g>
  <circle cx="20.33" cy="25.12" r=".32" fill="#c3e5e0"/>
  <g>
    <circle cx="15.26" cy="27.74" r=".24" fill="#95bfb9"/>
    <circle cx="11.29" cy="27.34" r=".16" fill="#95bfb9"/>
    <circle cx="24.29" cy="23.7" r=".63" fill="#95bfb9"/>
  </g>
  <circle cx="19.46" cy="28.37" r=".4" fill="#c3e5e0"/>
  <circle cx="15.65" cy="19.81" r=".32" fill="#dcf9f6"/>
  <circle cx="26.35" cy="20.92" r=".63" fill="#95bfb9"/>
  <circle cx="4.64" cy="23.22" r=".55" fill="#78a8a0"/>
  <circle cx="21.99" cy="15.06" r=".71" fill="#c3e5e0"/>
</svg>