<?xml version="1.0" encoding="UTF-8"?>
<svg id="PalletW" xmlns="http://www.w3.org/2000/svg" version="1.1" viewBox="0 0 32 32">
  <!-- Generator: Adobe Illustrator 29.8.4, SVG Export Plug-In . SVG Version: 2.1.1 Build 6)  -->
  <g id="PalletW1">
    <g id="PalletW2">
      <g>
        <g>
          <rect x="2.06" y="1.54" width="9.3" height="12.34" fill="#9d7945"/>
          <polygon points="11.36 1.54 11.36 13.88 2.06 13.88 2.06 13.42 11.05 13.42 11.05 1.54 11.36 1.54" fill="#7f5c32"/>
        </g>
        <g>
          <rect x="11.66" y="1.54" width="9.3" height="12.34" fill="#9d7945"/>
          <polygon points="20.94 1.54 20.94 13.88 11.66 13.88 11.66 13.42 20.64 13.42 20.64 1.54 20.94 1.54" fill="#7f5c32"/>
        </g>
        <g>
          <rect x="21.25" y="1.54" width="9.3" height="12.34" fill="#9d7945"/>
          <polygon points="30.55 1.54 30.55 13.88 21.25 13.88 21.25 13.42 30.24 13.42 30.24 1.54 30.55 1.54" fill="#7f5c32"/>
        </g>
        <g>
          <rect x="2.06" y="13.96" width="9.3" height="12.34" fill="#9d7945"/>
          <polygon points="11.36 13.96 11.36 26.3 2.06 26.3 2.06 25.84 11.05 25.84 11.05 13.96 11.36 13.96" fill="#7f5c32"/>
        </g>
        <g>
          <rect x="11.66" y="13.96" width="9.3" height="12.34" fill="#9d7945"/>
          <polygon points="20.94 13.96 20.94 26.3 11.66 26.3 11.66 25.84 20.64 25.84 20.64 13.96 20.94 13.96" fill="#7f5c32"/>
        </g>
        <g>
          <rect x="21.25" y="13.96" width="9.3" height="12.34" fill="#9d7945"/>
          <polygon points="30.55 13.96 30.55 26.3 21.25 26.3 21.25 25.84 30.24 25.84 30.24 13.96 30.55 13.96" fill="#7f5c32"/>
        </g>
      </g>
      <g>
        <rect x="26.45" y="26.32" width="4.97" height="1.12" fill="#7f5c32"/>
        <rect x="1.19" y="27.44" width="30.23" height=".56" fill="#9d7945"/>
        <rect x="20.14" y="26.32" width="4.97" height="1.12" fill="#7f5c32"/>
        <rect x="13.82" y="26.32" width="4.97" height="1.12" fill="#7f5c32"/>
        <rect x="7.51" y="26.32" width="4.97" height="1.12" fill="#7f5c32"/>
        <rect x="1.19" y="26.32" width="4.97" height="1.12" fill="#7f5c32"/>
        <path d="M31.42,28v3.99h-4.97v-3.99h4.97Z" fill="#674623"/>
        <rect x="13.82" y="28" width="4.97" height="3.99" fill="#674623"/>
        <path d="M6.16,28v3.99H1.19v-3.99h4.97Z" fill="#674623"/>
        <path d="M31.42,32v-3.95h-4.97c4.83.23,4.97,3.58,4.97,3.95Z" fill="#3a2919" isolation="isolate" opacity=".51"/>
        <path d="M6.14,28c-.37,0-4.51.06-4.95,2.93v-2.93h4.95Z" fill="#3a2919" isolation="isolate" opacity=".31"/>
        <rect x="13.82" y="28" width="4.97" height=".62" fill="#3a2919" isolation="isolate" opacity=".57"/>
      </g>
      <path d="M2.08,21.08c.12-4.31,0-8.8,0-8.8C13.65,17.23,30.55,3.83,30.55,3.83c-.15.75-.17,2.77-.12,5.37.17,7.51.98,19.81.98,19.81l-30.23-.4c.56-1.1.81-4.27.89-7.55h0v.02s0,0,.01,0Z" fill="#f2f2f2" isolation="isolate" opacity=".19"/>
      <path d="M30.28,29.02l-29.09-.39c.56-1.1.81-4.27.89-7.55,12.9-1.44,23.41-8.16,28.36-11.88.13,6.14.71,15.48.9,18.69.04.62-.44,1.12-1.06,1.12h0Z" fill="#f2f2f2" isolation="isolate" opacity=".26"/>
      <path d="M30.47,29.17l-24.22-.37c-.87,0-5.22-.33-5.22-1.17l.89-3.04c0-.87-.19,1.44.67,1.44h27.9c.87,0,1.56.69,1.56,1.56v.04c-1.91.33-.69,1.56-1.56,1.56h-.02v-.02Z" fill="#f2f2f2" isolation="isolate" opacity=".4"/>
      <path d="M18.79,10.76s-3.1,11.05-2.27,12.3l.39-13.86,1.87,1.56h.02s-.01,0-.01,0Z" fill="#9d7945" isolation="isolate" opacity=".6"/>
    </g>
    <path d="M13.68,29.77l7.97-13.8c.43-.75,1.52-.75,1.95,0l7.97,13.8c.43.75-.11,1.69-.98,1.69h-15.94c-.87,0-1.41-.94-.98-1.69h.01Z" fill="#f26200"/>
    <path d="M22.62,26.27c-.44,0-.8-.36-.8-.8v-5.41c0-.44.36-.8.8-.8s.8.36.8.8v5.41c0,.44-.36.8-.8.8Z" fill="#fff"/>
    <path d="M22.62,29.12c-.21,0-.42-.09-.57-.23-.15-.15-.24-.36-.24-.57s.09-.42.24-.57.35-.23.57-.23.42.09.56.23.23.36.23.57-.08.42-.23.57-.35.23-.56.23Z" fill="#fff"/>
  </g>
</svg>