<?xml version="1.0" encoding="UTF-8"?>
<svg xmlns="http://www.w3.org/2000/svg" version="1.1" viewBox="0 0 32 32">
  <!-- Generator: Adobe Illustrator 29.8.4, SVG Export Plug-In . SVG Version: 2.1.1 Build 6)  -->
  <g id="Layer_2">
    <g>
      <path d="M5.67,23.92h21.68c.75,0,1.35-.6,1.35-1.35V3.72c0-.75-.6-1.35-1.35-1.35H5.67c-.75,0-1.35.6-1.35,1.35v18.85c0,.75.6,1.35,1.35,1.35Z" fill="#c29e53"/>
      <path d="M27.35,2.37h-10.89v21.55h10.89c.75,0,1.35-.6,1.35-1.35V3.72c0-.75-.6-1.35-1.35-1.35Z" fill="#bc8a48"/>
      <rect x="14.2" y="2.37" width="4.62" height="9.25" fill="#032572"/>
      <rect x="16.47" y="2.37" width="2.36" height="9.25" fill="#0057bf"/>
    </g>
  </g>
  <g id="Layer_1">
    <g>
      <path d="M1.64,30.4h15.6c.54,0,.97-.43.97-.97v-13.56c0-.54-.43-.97-.97-.97H1.64c-.54,0-.97.43-.97.97v13.56c0,.54.43.97.97.97Z" fill="#ffcf6d"/>
      <path d="M17.24,14.89h-7.83v15.5h7.83c.54,0,.97-.43.97-.97v-13.55c0-.54-.43-.97-.97-.97Z" fill="#f9b65f"/>
      <rect x="7.78" y="14.89" width="3.32" height="6.65" fill="#0439af"/>
      <rect x="9.41" y="14.89" width="1.7" height="6.65" fill="#0073fc"/>
    </g>
    <g>
      <path d="M16.83,30.7h12.85c.44,0,.8-.36.8-.8v-11.17c0-.44-.36-.8-.8-.8h-12.85c-.44,0-.8.36-.8.8v11.17c0,.44.36.8.8.8Z" fill="#ffcf6d"/>
      <path d="M29.68,17.92h-6.45v12.77h6.45c.44,0,.8-.36.8-.8v-11.17c0-.44-.36-.8-.8-.8Z" fill="#ffba61"/>
      <rect x="21.89" y="17.92" width="2.74" height="5.48" fill="#0652fb"/>
      <rect x="23.23" y="17.92" width="1.4" height="5.48" fill="#0074ff"/>
    </g>
  </g>
</svg>