<?xml version="1.0" encoding="UTF-8"?>
<svg id="Layer_1" xmlns="http://www.w3.org/2000/svg" version="1.1" viewBox="0 0 32 32">
  <!-- Generator: Adobe Illustrator 29.8.4, SVG Export Plug-In . SVG Version: 2.1.1 Build 6)  -->
  <circle cx="5.39" cy="29.45" r="2" fill="#606161"/>
  <circle cx="5.39" cy="29.45" r="1.39" fill="#231f20"/>
  <circle cx="28.52" cy="29.45" r="2" fill="#606161"/>
  <circle cx="16.95" cy="29.45" r="2" fill="#606161"/>
  <circle cx="16.95" cy="29.45" r="1.39" fill="#231f20"/>
  <circle cx="28.52" cy="29.45" r="1.39" fill="#231f20"/>
  <rect x="16.49" y="13.89" width=".92" height="27.12" transform="translate(-10.5 44.41) rotate(-90)" fill="#003e71"/>
  <rect x="16.83" y="14.23" width=".24" height="27.12" transform="translate(-10.84 44.75) rotate(-90)" fill="#000020"/>
  <rect x="16.49" y="9.25" width=".92" height="27.12" transform="translate(-5.85 39.76) rotate(-90)" fill="#003e71"/>
  <rect x="16.83" y="9.59" width=".24" height="27.12" transform="translate(-6.19 40.1) rotate(-90)" fill="#000020"/>
  <rect x="3.39" y="5.59" width=".92" height="22.21" transform="translate(7.71 33.38) rotate(180)" fill="#003e71"/>
  <rect x="31.17" y="9.25" width=".46" height="9.37" transform="translate(62.79 27.88) rotate(180)" fill="#003e71"/>
  <rect x="30.47" y="17.47" width=".44" height="1.87" transform="translate(12.29 49.09) rotate(-90)" fill="#003e71"/>
  <rect x="30.47" y="8.54" width=".44" height="1.87" transform="translate(21.22 40.16) rotate(-90)" fill="#003e71"/>
  <rect x=".48" y="9.06" width=".71" height="7.08" fill="#003e71"/>
  <rect x="2.09" y="17.13" width=".73" height="1.87" transform="translate(20.52 15.61) rotate(90)" fill="#003e71"/>
  <rect x="4.07" y="5.59" width=".24" height="22.21" transform="translate(8.39 33.38) rotate(180)" fill="#000020"/>
  <rect x="5" y="23.02" width=".05" height="4.18" fill="#000020"/>
  <rect x="4.58" y="23.02" width=".05" height="4.18" fill="#000020"/>
  <rect x="5.84" y="23.02" width=".05" height="4.18" fill="#000020"/>
  <rect x="5.42" y="23.02" width=".05" height="4.18" fill="#000020"/>
  <rect x="6.67" y="23.02" width=".05" height="4.18" fill="#000020"/>
  <rect x="6.25" y="23.02" width=".05" height="4.18" fill="#000020"/>
  <rect x="7.51" y="23.02" width=".05" height="4.18" fill="#000020"/>
  <rect x="7.09" y="23.02" width=".05" height="4.18" fill="#000020"/>
  <rect x="8.35" y="23.02" width=".05" height="4.18" fill="#000020"/>
  <rect x="7.93" y="23.02" width=".05" height="4.18" fill="#000020"/>
  <rect x="9.19" y="23.02" width=".05" height="4.18" fill="#000020"/>
  <rect x="8.77" y="23.02" width=".05" height="4.18" fill="#000020"/>
  <rect x="10.03" y="23.02" width=".05" height="4.18" fill="#000020"/>
  <rect x="9.61" y="23.02" width=".05" height="4.18" fill="#000020"/>
  <rect x="10.86" y="23.02" width=".05" height="4.18" fill="#000020"/>
  <rect x="10.44" y="23.02" width=".05" height="4.18" fill="#000020"/>
  <rect x="11.7" y="23.02" width=".05" height="4.18" fill="#000020"/>
  <rect x="11.28" y="23.02" width=".05" height="4.18" fill="#000020"/>
  <rect x="12.54" y="23.02" width=".05" height="4.18" fill="#000020"/>
  <rect x="12.12" y="23.02" width=".05" height="4.18" fill="#000020"/>
  <rect x="13.38" y="23.02" width=".05" height="4.18" fill="#000020"/>
  <rect x="12.96" y="23.02" width=".05" height="4.18" fill="#000020"/>
  <rect x="14.21" y="23.02" width=".05" height="4.18" fill="#000020"/>
  <rect x="13.8" y="23.02" width=".05" height="4.18" fill="#000020"/>
  <rect x="15.05" y="23.02" width=".05" height="4.18" fill="#000020"/>
  <rect x="14.63" y="23.02" width=".05" height="4.18" fill="#000020"/>
  <rect x="15.89" y="23.02" width=".05" height="4.18" fill="#000020"/>
  <rect x="15.47" y="23.02" width=".05" height="4.18" fill="#000020"/>
  <rect x="16.73" y="23.02" width=".05" height="4.18" fill="#000020"/>
  <rect x="16.31" y="23.02" width=".05" height="4.18" fill="#000020"/>
  <rect x="17.57" y="23.02" width=".05" height="4.18" fill="#000020"/>
  <rect x="17.15" y="23.02" width=".05" height="4.18" fill="#000020"/>
  <rect x="18.4" y="23.02" width=".05" height="4.18" fill="#000020"/>
  <rect x="17.99" y="23.02" width=".05" height="4.18" fill="#000020"/>
  <rect x="19.24" y="23.02" width=".05" height="4.18" fill="#000020"/>
  <rect x="18.82" y="23.02" width=".05" height="4.18" fill="#000020"/>
  <rect x="20.08" y="23.02" width=".05" height="4.18" fill="#000020"/>
  <rect x="19.66" y="23.02" width=".05" height="4.18" fill="#000020"/>
  <rect x="20.92" y="23.02" width=".05" height="4.18" fill="#000020"/>
  <rect x="20.5" y="23.02" width=".05" height="4.18" fill="#000020"/>
  <rect x="21.76" y="23.02" width=".05" height="4.18" fill="#000020"/>
  <rect x="21.34" y="23.02" width=".05" height="4.18" fill="#000020"/>
  <rect x="22.59" y="23.02" width=".05" height="4.18" fill="#000020"/>
  <rect x="4.2" y="23.52" width="25.39" height=".05" fill="#000020"/>
  <rect x="4.2" y="23.91" width="25.39" height=".05" fill="#000020"/>
  <rect x="4.2" y="24.3" width="25.39" height=".05" fill="#000020"/>
  <rect x="4.2" y="24.7" width="25.39" height=".05" fill="#000020"/>
  <rect x="4.2" y="25.09" width="25.39" height=".05" fill="#000020"/>
  <rect x="4.2" y="25.49" width="25.39" height=".05" fill="#000020"/>
  <rect x="4.2" y="25.88" width="25.39" height=".05" fill="#000020"/>
  <rect x="4.2" y="26.27" width="25.39" height=".05" fill="#000020"/>
  <rect x="4.2" y="26.67" width="25.39" height=".05" fill="#000020"/>
  <rect x="22.18" y="23.02" width=".05" height="4.18" fill="#000020"/>
  <rect x="23.43" y="23.02" width=".05" height="4.18" fill="#000020"/>
  <rect x="23.01" y="23.02" width=".05" height="4.18" fill="#000020"/>
  <rect x="24.27" y="23.02" width=".05" height="4.18" fill="#000020"/>
  <rect x="23.85" y="23.02" width=".05" height="4.18" fill="#000020"/>
  <rect x="25.11" y="23.02" width=".05" height="4.18" fill="#000020"/>
  <rect x="24.69" y="23.02" width=".05" height="4.18" fill="#000020"/>
  <rect x="25.95" y="23.02" width=".05" height="4.18" fill="#000020"/>
  <rect x="25.53" y="23.02" width=".05" height="4.18" fill="#000020"/>
  <rect x="26.78" y="23.02" width=".05" height="4.18" fill="#000020"/>
  <rect x="26.37" y="23.02" width=".05" height="4.18" fill="#000020"/>
  <rect x="28.04" y="23.02" width=".05" height="4.18" fill="#000020"/>
  <rect x="27.2" y="23.02" width=".05" height="4.18" fill="#000020"/>
  <rect x="28.46" y="23.02" width=".05" height="4.18" fill="#000020"/>
  <rect x="27.62" y="23.02" width=".05" height="4.18" fill="#000020"/>
  <rect x="29.3" y="23.02" width=".05" height="4.18" fill="#000020"/>
  <rect x="28.88" y="23.02" width=".05" height="4.18" fill="#000020"/>
  <rect x="29.59" y="5.59" width=".92" height="22.21" transform="translate(60.1 33.38) rotate(180)" fill="#003e71"/>
  <rect x="30.27" y="5.59" width=".24" height="22.21" transform="translate(60.78 33.38) rotate(180)" fill="#000020"/>
  <path d="M29.58,6.87v15.47H4.32V6.87c1.01.22,2.04.43,3.07.65.29.06.58.13.86.18,2.01.7,3.74,1.08,4.99,1.29,3.93.65,7.22.35,9.51.12.98-.1,1.8-.21,2.35-.3,1.48-.65,2.96-1.28,4.44-1.93.02-.01.03-.01.03-.01Z" fill="#fdc75d"/>
  <path d="M29.58,6.87v15.47C21.09,20.36,7.39,7.52,7.39,7.52c.29.06.58.13.86.18,2.01.7,3.74,1.08,4.99,1.29,3.93.65,7.22.35,9.51.12.98-.1,1.8-.21,2.35-.3,1.48-.65,2.96-1.28,4.44-1.93.02-.01.03-.01.03-.01Z" fill="#fbb943"/>
  <path d="M1.17,15.92s-.21,1.77.35,1.77l.23.73s-1.65.19-1.27-2.51h.69Z" fill="#003e71"/>
</svg>