<?xml version="1.0" encoding="UTF-8"?>
<svg id="Layer_1" xmlns="http://www.w3.org/2000/svg" version="1.1" viewBox="0 0 32 32">
  <!-- Generator: Adobe Illustrator 29.8.4, SVG Export Plug-In . SVG Version: 2.1.1 Build 6)  -->
  <path d="M8.55,13.61c-.64,0-1.01-.73-.62-1.24L15.99,1.6c.31-.42.93-.42,1.24,0l8.05,10.77c.38.51.02,1.24-.62,1.24H8.55Z" fill="#b6f4b0"/>
  <path d="M24.66,14.42H8.56c-.61,0-1.15-.34-1.42-.88-.27-.54-.21-1.18.15-1.66L15.34,1.11c.3-.4.77-.64,1.27-.64s.97.23,1.27.64l8.05,10.77c.36.48.42,1.12.15,1.66-.27.54-.82.88-1.42.88ZM8.62,12.8h15.97l-7.98-10.67-7.98,10.67Z" fill="#4db32e"/>
  <path d="M24.66,18.39c.64,0,1.01.73.62,1.24l-8.05,10.77c-.31.42-.93.42-1.24,0l-8.05-10.77c-.38-.51-.02-1.24.62-1.24h16.11Z" fill="#f4b6b0"/>
  <path d="M8.55,17.58h16.11c.61,0,1.15.34,1.42.88.27.54.21,1.18-.15,1.66l-8.05,10.77c-.3.4-.77.64-1.27.64s-.97-.23-1.27-.64l-8.05-10.77c-.36-.48-.42-1.12-.15-1.66.27-.54.82-.88,1.42-.88ZM24.59,19.2h-15.97l7.98,10.67,7.98-10.67Z" fill="#b30b08"/>
</svg>