<?xml version="1.0" encoding="UTF-8"?>
<svg id="Layer_1" xmlns="http://www.w3.org/2000/svg" version="1.1" viewBox="0 0 24 24">
  <!-- Generator: Adobe Illustrator 29.8.4, SVG Export Plug-In . SVG Version: 2.1.1 Build 6)  -->
  <path d="M23.34,8.86V1.32l-2.99,2.99-.34-.34C17.87,1.84,15.02.66,12,.66,5.75.66.67,5.74.67,11.99s5.08,11.33,11.33,11.33,11.33-5.08,11.33-11.33h-2.19c0,5.04-4.1,9.14-9.14,9.14S2.86,17.03,2.86,11.99,6.96,2.85,12,2.85c2.44,0,4.74.95,6.46,2.68l.34.34-2.99,2.99h7.54,0Z" fill="#020e28"/>
  <path d="M12,21.14v2.19c6.25,0,11.33-5.08,11.33-11.33h-2.19c0,5.04-4.1,9.14-9.14,9.14Z" fill="#74d7fb"/>
  <path d="M20.35,4.32l-.34-.34C17.87,1.84,15.02.66,12,.66v2.19c2.44,0,4.74.95,6.46,2.68l.34.34-2.99,2.99h7.54V1.32l-2.99,2.99h0Z" fill="#74d7fb"/>
</svg>