<?xml version="1.0" encoding="UTF-8"?>
<svg id="Layer_2" xmlns="http://www.w3.org/2000/svg" version="1.1" viewBox="0 0 32 32">
  <!-- Generator: Adobe Illustrator 29.8.4, SVG Export Plug-In . SVG Version: 2.1.1 Build 6)  -->
  <circle cx="15.97" cy="16.05" r="9.16" fill="#ffce00"/>
  <path d="M15.97,6.89c5.04,0,9.16,4.12,9.16,9.16s-4.12,9.16-9.16,9.16" fill="#ff9d00"/>
  <path d="M25.13,16.05c0,5.04-4.12,8.44-9.16,8.44s-9.16-3.4-9.16-8.44S10.93,7.61,15.97,7.61s9.16,3.4,9.16,8.44Z" fill="#ffbc00"/>
  <path d="M15.97,7.61c5.04,0,9.16,3.4,9.16,8.44s-4.12,8.44-9.16,8.44-9.16-3.4-9.16-8.44" fill="#ffb000"/>
  <path d="M15.97,7.61c5.04,0,9.16,3.4,9.16,8.44s-4.12,8.44-9.16,8.44" fill="#ffbc00"/>
  <path d="M25.13,16.05c0,5.04-4.12,8.44-9.16,8.44" fill="#ffce00"/>
  <circle cx="15.97" cy="3.9" r=".67" fill="#ff9d00"/>
  <polygon points="16.79 1.69 15.97 1.95 15.15 1.69 15.97 .1 16.79 1.69" fill="#ffce00"/>
  <circle cx="15.97" cy="28.19" r=".67" fill="#ff9d00"/>
  <polygon points="15.15 30.4 15.97 30.15 16.79 30.4 15.97 32 15.15 30.4" fill="#ffce00"/>
  <path d="M25.03,7.97c-.26.26-.72.26-.98,0s-.26-.72,0-.98.72-.26.98,0,.26.72,0,.98Z" fill="#ff9d00"/>
  <polygon points="26.72 6.48 25.95 6.07 25.54 5.29 27.24 4.78 26.72 6.48" fill="#ffce00"/>
  <circle cx="7.38" cy="24.64" r=".67" fill="#ff9d00"/>
  <polygon points="5.22 25.62 5.99 26.03 6.4 26.8 4.7 27.32 5.22 25.62" fill="#ffce00"/>
  <path d="M28.11,16.72c-.36,0-.67-.31-.67-.67s.31-.67.67-.67.67.31.67.67-.31.67-.67.67Z" fill="#ff9d00"/>
  <polygon points="30.33 16.87 30.07 16.05 30.33 15.23 31.92 16.05 30.33 16.87" fill="#ffce00"/>
  <circle cx="3.83" cy="16.05" r=".67" fill="#ff9d00"/>
  <polygon points="1.61 15.23 1.87 16.05 1.61 16.87 .02 16.05 1.61 15.23" fill="#ffce00"/>
  <path d="M24.05,25.1c-.26-.26-.26-.72,0-.98s.72-.26.98,0,.26.72,0,.98-.72.26-.98,0Z" fill="#ff9d00"/>
  <polygon points="25.54 26.8 25.95 26.03 26.72 25.62 27.24 27.32 25.54 26.8" fill="#ffce00"/>
  <path d="M7.89,6.99c.26.26.26.72,0,.98s-.72.26-.98,0-.26-.72,0-.98.72-.26.98,0Z" fill="#ff9d00"/>
  <g>
    <polygon points="6.4 5.29 5.99 6.07 5.22 6.48 4.7 4.78 6.4 5.29" fill="#ffce00"/>
    <path d="M21.32,5.14c-.15.36-.57.51-.87.36-.36-.15-.51-.57-.36-.87.15-.36.57-.51.87-.36.36.15.51.57.36.87Z" fill="#ffce00"/>
  </g>
  <polygon points="22.35 3.13 21.48 3.08 20.86 2.52 22.2 1.38 22.35 3.13" fill="#ff9d00"/>
  <circle cx="11.24" cy="27.21" r=".67" fill="#ffce00"/>
  <polygon points="9.59 28.96 10.46 29.02 11.08 29.58 9.74 30.71 9.59 28.96" fill="#ff9d00"/>
  <path d="M27.44,12.14c-.36.15-.77-.05-.87-.36-.15-.36.05-.77.36-.87.36-.15.77.05.87.36.21.36,0,.72-.36.87Z" fill="#ffce00"/>
  <polygon points="29.61 11.42 29.04 10.75 28.99 9.93 30.74 10.08 29.61 11.42" fill="#ff9d00"/>
  <path d="M4.5,19.96c.36-.15.77.05.87.36.15.36-.05.77-.36.87-.36.15-.77,0-.93-.36-.15-.36.05-.72.41-.87h.01Z" fill="#ffce00"/>
  <polygon points="2.33 20.68 2.9 21.35 2.95 22.17 1.2 22.02 2.33 20.68" fill="#ff9d00"/>
  <path d="M26.88,21.4c-.36-.15-.51-.57-.36-.87.15-.36.57-.51.87-.36.36.15.51.57.36.87-.15.36-.57.51-.87.36Z" fill="#ffce00"/>
  <polygon points="28.89 22.43 28.94 21.55 29.5 20.94 30.64 22.27 28.89 22.43" fill="#ff9d00"/>
  <path d="M5.06,10.7c.36.15.51.57.36.87-.15.36-.57.51-.87.36-.36-.15-.51-.57-.36-.87.15-.36.57-.51.87-.36Z" fill="#ffce00"/>
  <polygon points="3.05 9.67 3 10.54 2.44 11.16 1.3 9.82 3.05 9.67" fill="#ff9d00"/>
  <circle cx="20.5" cy="27.27" r=".67" fill="#ffce00"/>
  <polygon points="20.6 29.68 21.27 29.12 22.09 29.07 21.94 30.82 20.6 29.68" fill="#ff9d00"/>
  <path d="M12.06,4.57c.15.36-.05.77-.36.87-.36.15-.77-.05-.87-.36-.15-.36,0-.77.36-.93.36-.15.72.05.87.41h0Z" fill="#ffce00"/>
  <polygon points="11.34 2.41 10.67 2.98 9.85 3.03 10 1.23 11.34 2.41" fill="#ff9d00"/>
</svg>