<?xml version="1.0" encoding="UTF-8"?>
<svg id="Layer_1" xmlns="http://www.w3.org/2000/svg" version="1.1" viewBox="0 0 24 24">
  <!-- Generator: Adobe Illustrator 29.8.4, SVG Export Plug-In . SVG Version: 2.1.1 Build 6)  -->
  <g id="Layer_2">
    <g>
      <circle cx="12.34" cy="12.07" r="6.81" fill="#dcf9f6"/>
      <path d="M12.34,18.88c-3.75,0-6.81-3.07-6.81-6.81s3.07-6.81,6.81-6.81" fill="#95bfb9"/>
      <path d="M12.34,18.88c-3.75,0-4.77-3.07-4.77-6.81s.99-6.81,4.77-6.81" fill="#caede7"/>
      <g>
        <circle cx="7.6" cy="8.46" r=".41" fill="#78a8a0"/>
        <circle cx="7.02" cy="9.99" r=".07" fill="#78a8a0"/>
      </g>
      <g>
        <circle cx="9.78" cy="10.88" r="1.26" fill="#dcf9f6"/>
        <circle cx="10.33" cy="8.12" r=".34" fill="#dcf9f6"/>
      </g>
      <circle cx="12.68" cy="7.95" r=".1" fill="#c3e5e0"/>
      <circle cx="13.56" cy="6.79" r=".1" fill="#78a8a0"/>
      <circle cx="10.29" cy="6.86" r=".17" fill="#dcf9f6"/>
      <circle cx="11.66" cy="6.28" r=".07" fill="#95bfb9"/>
      <g>
        <circle cx="13.22" cy="10.19" r=".27" fill="#c3e5e0"/>
        <circle cx="15.27" cy="10.02" r=".17" fill="#c3e5e0"/>
        <circle cx="15.71" cy="8.08" r=".27" fill="#c3e5e0"/>
        <circle cx="14.52" cy="13.57" r=".75" fill="#c3e5e0"/>
      </g>
      <g>
        <circle cx="8.35" cy="14.01" r=".24" fill="#dcf9f6"/>
        <circle cx="10.8" cy="12.99" r=".1" fill="#dcf9f6"/>
        <circle cx="12" cy="15.54" r=".41" fill="#dcf9f6"/>
      </g>
      <circle cx="7.02" cy="12.27" r=".27" fill="#78a8a0"/>
      <circle cx="13.09" cy="12.1" r=".07" fill="#c3e5e0"/>
      <circle cx="16.36" cy="12.24" r=".17" fill="#95bfb9"/>
      <g>
        <circle cx="9.13" cy="15.88" r=".41" fill="#dcf9f6"/>
        <circle cx="9.95" cy="14.42" r=".14" fill="#dcf9f6"/>
      </g>
      <circle cx="14.18" cy="16.02" r=".14" fill="#c3e5e0"/>
      <g>
        <circle cx="12" cy="17.14" r=".1" fill="#95bfb9"/>
        <circle cx="10.29" cy="16.97" r=".07" fill="#95bfb9"/>
        <circle cx="15.88" cy="15.41" r=".27" fill="#95bfb9"/>
      </g>
      <circle cx="13.8" cy="17.42" r=".17" fill="#c3e5e0"/>
      <circle cx="12.17" cy="13.74" r=".14" fill="#dcf9f6"/>
      <circle cx="16.76" cy="14.21" r=".27" fill="#95bfb9"/>
      <circle cx="7.43" cy="15.2" r=".24" fill="#78a8a0"/>
      <circle cx="14.89" cy="11.69" r=".31" fill="#c3e5e0"/>
    </g>
  </g>
  <g id="Layer_11" data-name="Layer_1">
    <path d="M19.03,12c0,.47-.05.93-.14,1.36-.04.23-.1.46-.17.69-.47,1.5-1.45,2.79-2.73,3.67-.19.12-.38.24-.58.35-.39.21-.8.38-1.23.52-.56.17-1.15.28-1.76.29V5.12c.61.01,1.2.12,1.76.29.43.14.84.31,1.23.52.2.11.39.23.58.35,1.28.88,2.26,2.17,2.73,3.67.07.23.13.46.17.69.09.43.14.89.14,1.36Z" fill="#ffce00"/>
    <path d="M19.03,12c0,.47-.05.93-.14,1.36-.04.23-.1.46-.17.69-.47,1.5-1.45,2.79-2.73,3.67-.19.12-.38.24-.58.35-.39.21-.8.38-1.23.52-.56.17-1.15.28-1.76.29V5.12c.61.01,1.2.12,1.76.29.43.14.84.31,1.23.52.2.11.39.23.58.35,1.28.88,2.26,2.17,2.73,3.67.07.23.13.46.17.69.09.43.14.89.14,1.36Z" fill="#ff9d00"/>
    <path d="M19.03,12c0,.47-.05.93-.14,1.36-.04.2-.09.39-.15.57-.03.11-.07.22-.13.33-.04.14-.1.28-.17.42-.07.16-.16.32-.25.48-.11.18-.22.36-.35.52-.08.11-.16.22-.25.32-.06.07-.12.14-.18.2-.29.31-.61.59-.96.84-.13.1-.27.19-.41.27-.05.04-.11.07-.17.1-.11.06-.22.12-.33.17-.07.04-.14.08-.22.11-.14.07-.28.12-.43.17-.41.16-.84.29-1.3.36-.13.03-.27.05-.41.06-.07.02-.15.03-.23.03-.14.02-.28.03-.43.03-.03.01-.06.01-.1.01V5.65s.07,0,.1.01c.15,0,.29.01.43.03.08,0,.16.01.23.03.14.01.28.03.41.06.46.07.89.2,1.3.36.15.05.29.1.43.17.08.03.15.07.22.11.11.05.22.11.33.17.06.03.12.06.17.1.14.08.28.17.41.27.35.25.67.53.96.84.06.06.12.13.18.2.09.1.17.21.25.32.13.16.24.34.35.52.09.16.18.32.25.48.07.14.13.28.17.42.06.11.1.22.13.33.06.18.11.37.15.57.09.43.14.89.14,1.36Z" fill="#ffbc00"/>
    <path d="M19.03,12c0,.47-.05.93-.14,1.36-.04.2-.09.39-.15.57-.03.11-.07.22-.13.33-.04.14-.1.28-.17.42-.07.16-.16.32-.25.48-.11.18-.22.36-.35.52-.08.11-.16.22-.25.32-.06.07-.12.14-.18.2-.29.31-.61.59-.96.84-.13.1-.27.19-.41.27-.05.04-.11.07-.17.1-.11.06-.22.12-.33.17-.07.04-.14.08-.22.11-.14.07-.28.12-.43.17-.41.16-.84.29-1.3.36-.13.03-.27.05-.41.06-.07.02-.15.03-.23.03-.14.02-.28.03-.43.03-.03.01-.06.01-.1.01V5.65s.07,0,.1.01c.15,0,.29.01.43.03.08,0,.16.01.23.03.14.01.28.03.41.06.46.07.89.2,1.3.36.15.05.29.1.43.17.08.03.15.07.22.11.11.05.22.11.33.17.06.03.12.06.17.1.14.08.28.17.41.27.35.25.67.53.96.84.06.06.12.13.18.2.09.1.17.21.25.32.13.16.24.34.35.52.09.16.18.32.25.48.07.14.13.28.17.42.06.11.1.22.13.33.06.18.11.37.15.57.09.43.14.89.14,1.36Z" fill="#ffb000"/>
    <path d="M19.03,12c0,.47-.05.93-.14,1.36-.04.2-.09.39-.15.57-.03.11-.07.22-.13.33-.04.14-.1.28-.17.42-.07.16-.16.32-.25.48-.11.18-.22.36-.35.52-.08.11-.16.22-.25.32-.06.07-.12.14-.18.2-.29.31-.61.59-.96.84-.13.1-.27.19-.41.27-.05.04-.11.07-.17.1-.11.06-.22.12-.33.17-.07.04-.14.08-.22.11-.14.07-.28.12-.43.17-.41.16-.84.29-1.3.36-.13.03-.27.05-.41.06-.07.02-.15.03-.23.03-.14.02-.28.03-.43.03-.03.01-.06.01-.1.01V5.65s.07,0,.1.01c.15,0,.29.01.43.03.08,0,.16.01.23.03.14.01.28.03.41.06.46.07.89.2,1.3.36.15.05.29.1.43.17.08.03.15.07.22.11.11.05.22.11.33.17.06.03.12.06.17.1.14.08.28.17.41.27.35.25.67.53.96.84.06.06.12.13.18.2.09.1.17.21.25.32.13.16.24.34.35.52.09.16.18.32.25.48.07.14.13.28.17.42.06.11.1.22.13.33.06.18.11.37.15.57.09.43.14.89.14,1.36Z" fill="#ffbc00"/>
    <path d="M19.03,12c0,.47-.05.93-.14,1.36-.04.2-.09.39-.15.57-.03.11-.07.22-.13.33-.04.14-.1.28-.17.42-.07.16-.16.32-.25.48-.11.18-.22.36-.35.52-.08.11-.16.22-.25.32-.06.07-.12.14-.18.2-.29.31-.61.59-.96.84-.13.1-.27.19-.41.27-.05.04-.11.07-.17.1-.11.06-.22.12-.33.17-.07.04-.14.08-.22.11-.14.07-.28.12-.43.17-.41.16-.84.29-1.3.36-.13.03-.27.05-.41.06-.07.02-.15.03-.23.03-.14.02-.28.03-.43.03-.03.01-.06.01-.1.01v-.26s6.61-6.09,6.61-6.09Z" fill="#ffce00"/>
    <path d="M12.63,2.85c0,.17-.08.32-.21.41v-.82c.13.09.21.24.21.41Z" fill="#ff9d00"/>
    <polygon points="12.75 1.19 12.42 1.29 12.42 .55 12.75 1.19" fill="#ffce00"/>
    <path d="M12.63,21.15c0,.17-.08.32-.21.41v-.82c.13.09.21.24.21.41Z" fill="#ff9d00"/>
    <polygon points="12.75 22.82 12.42 23.46 12.42 22.71 12.75 22.82" fill="#ffce00"/>
    <path d="M18.95,5.91c-.19.19-.54.19-.74,0s-.19-.54,0-.74.54-.19.74,0,.19.54,0,.74Z" fill="#ff9d00"/>
    <polygon points="20.23 4.79 19.65 4.48 19.34 3.9 20.62 3.51 20.23 4.79" fill="#ffce00"/>
    <path d="M21.27,12.5c-.27,0-.5-.23-.5-.5s.23-.5.5-.5.5.23.5.5-.23.5-.5.5Z" fill="#ff9d00"/>
    <polygon points="22.94 12.62 22.75 12 22.94 11.38 24.14 12 22.94 12.62" fill="#ffce00"/>
    <path d="M18.21,18.82c-.19-.19-.19-.54,0-.74s.54-.19.74,0,.19.54,0,.74c-.19.19-.54.19-.74,0Z" fill="#ff9d00"/>
    <polygon points="19.34 20.1 19.65 19.52 20.23 19.21 20.62 20.49 19.34 20.1" fill="#ffce00"/>
    <path d="M16.16,3.78c-.12.27-.43.39-.66.27-.27-.12-.39-.43-.27-.66.12-.27.43-.39.66-.27.27.12.39.43.27.66Z" fill="#ffce00"/>
    <polygon points="16.93 2.27 16.27 2.23 15.81 1.81 16.82 .95 16.93 2.27" fill="#ff9d00"/>
    <path d="M20.77,9.05c-.27.12-.58-.04-.66-.27-.12-.27.04-.58.27-.66.27-.12.58.04.66.27.16.27,0,.54-.27.66Z" fill="#ffce00"/>
    <polygon points="22.4 8.51 21.97 8.01 21.93 7.39 23.25 7.5 22.4 8.51" fill="#ff9d00"/>
    <path d="M20.34,16.03c-.27-.12-.39-.43-.27-.66.12-.27.43-.39.66-.27.27.12.39.43.27.66-.12.27-.43.39-.66.27Z" fill="#ffce00"/>
    <polygon points="21.86 16.81 21.89 16.15 22.32 15.68 23.17 16.69 21.86 16.81" fill="#ff9d00"/>
    <circle cx="15.54" cy="20.45" r=".5" fill="#ffce00"/>
    <polygon points="15.61 22.27 16.12 21.85 16.74 21.81 16.62 23.12 15.61 22.27" fill="#ff9d00"/>
  </g>
</svg>