<?xml version="1.0" encoding="UTF-8"?>
<svg id="Layer_1" xmlns="http://www.w3.org/2000/svg" version="1.1" viewBox="0 0 32 32">
  <!-- Generator: Adobe Illustrator 29.8.4, SVG Export Plug-In . SVG Version: 2.1.1 Build 6)  -->
  <path d="M2.37,29.36h27.26c.94,0,1.7-.76,1.7-1.7V3.96c0-.94-.76-1.7-1.7-1.7H2.37c-.94,0-1.7.76-1.7,1.7v23.7c0,.94.76,1.7,1.7,1.7Z" fill="#ffcf6d"/>
  <path d="M29.63,2.26h-13.69v27.09h13.69c.94,0,1.7-.76,1.7-1.7V3.96c0-.94-.76-1.7-1.7-1.7Z" fill="#f9b65f"/>
  <rect x="13.09" y="2.26" width="5.81" height="11.63" fill="#0439af"/>
  <rect x="15.94" y="2.26" width="2.97" height="11.63" fill="#0073fc"/>
  <g>
    <circle cx="20.33" cy="20.87" r="10.28" fill="#32373b"/>
    <circle cx="20.33" cy="20.87" r="8.26" fill="#ecf0f1"/>
    <path d="M23.61,24.44c-.2,0-.41-.07-.58-.21l-3.27-2.65c-.22-.18-.34-.44-.34-.72v-5.14c0-.51.41-.92.92-.92s.92.41.92.92v4.7l2.93,2.37c.4.32.46.9.14,1.3-.18.23-.45.34-.72.34Z" fill="#32373b"/>
  </g>
</svg>