<?xml version="1.0" encoding="UTF-8"?>
<svg id="Layer_1" xmlns="http://www.w3.org/2000/svg" version="1.1" viewBox="0 0 24 24">
  <!-- Generator: Adobe Illustrator 29.8.4, SVG Export Plug-In . SVG Version: 2.1.1 Build 6)  -->
  <g id="invisible_box">
    <rect x="-1.05" y="-.46" width="25.48" height="25.48" fill="none"/>
  </g>
  <path d="M11.69,4.84h0c0-.59.48-1.06,1.06-1.06h8.49c.59,0,1.06.48,1.06,1.06h0c0,.59-.48,1.06-1.06,1.06h-8.49c-.59,0-1.06-.48-1.06-1.06Z" fill="#020e28"/>
  <path d="M11.69,12.27h0c0-.59.48-1.06,1.06-1.06h8.49c.59,0,1.06.48,1.06,1.06h0c0,.59-.48,1.06-1.06,1.06h-8.49c-.59,0-1.06-.48-1.06-1.06Z" fill="#020e28"/>
  <path d="M11.69,19.7h0c0-.59.48-1.06,1.06-1.06h8.49c.59,0,1.06.48,1.06,1.06h0c0,.59-.48,1.06-1.06,1.06h-8.49c-.59,0-1.06-.48-1.06-1.06Z" fill="#020e28"/>
  <path d="M5.32.6c-.37.02-.71.21-.9.53L1.18,6.44c-.16.34-.16.73,0,1.06.18.33.53.54.9.53h6.42c.37-.02.71-.21.9-.53.21-.32.21-.74,0-1.06L6.22,1.13c-.18-.33-.53-.54-.9-.53Z" fill="#2f5a91"/>
  <path d="M5.32,15.46c-1.76,0-3.18-1.43-3.18-3.18s1.43-3.18,3.18-3.18,3.18,1.43,3.18,3.18-1.43,3.18-3.18,3.18Z" fill="#ffc2c5"/>
  <path d="M7.44,22.89H3.19c-.59,0-1.06-.48-1.06-1.06v-4.25c0-.59.48-1.06,1.06-1.06h4.25c.59,0,1.06.48,1.06,1.06v4.25c0,.59-.48,1.06-1.06,1.06Z" fill="#020e28"/>
</svg>