<?xml version="1.0" encoding="UTF-8"?>
<svg id="Layer_1" xmlns="http://www.w3.org/2000/svg" version="1.1" viewBox="0 0 32 32">
  <!-- Generator: Adobe Illustrator 29.8.4, SVG Export Plug-In . SVG Version: 2.1.1 Build 6)  -->
  <path d="M16-.11C7.16-.11,0,7.05,0,15.89s7.16,16,16,16,16-7.16,16-16S24.84-.11,16-.11Z" fill="#74d7fb"/>
  <path d="M16,6.29c-2.65,0-4.8,2.15-4.8,4.8s2.15,4.8,4.8,4.8,4.8-2.15,4.8-4.8-2.15-4.8-4.8-4.8Z" fill="#020e28"/>
  <path d="M25.43,23.17c.23.45.23.98,0,1.43.01-.03,0,0,0,0h0v.04s-.03.04-.05.06c-.03.05-.06.11-.11.18-.09.14-.22.32-.39.52-.34.41-.85.91-1.59,1.41-1.49.99-3.81,1.87-7.29,1.87-5.9,0-8.38-2.51-9.17-3.66-.48-.7-.43-1.51-.14-2.09,1.18-2.36,3.59-3.84,6.22-3.84h5.91c2.8,0,5.36,1.58,6.61,4.08Z" fill="#020e28"/>
</svg>