<?xml version="1.0" encoding="UTF-8"?>
<svg xmlns="http://www.w3.org/2000/svg" width="80mm" height="22mm" version="1.1" viewBox="0 0 226.8 62.4">
  <!-- Generator: Adobe Illustrator 29.2.0, SVG Export Plug-In . SVG Version: 2.1.0 Build 108)  -->
  <defs>
    <style>
      .st0 {
        font-size: 5px;
      }

      .st0, .st1, .st2, .st3, .st4 {
        font-family: AmazonEmber-Regular, 'Amazon Ember';
      }

      .st0, .st1, .st3 {
        fill: #231f20;
      }

      .st5 {
        fill: #29ade4;
      }

      .st6 {
        fill: #c2c1c0;
      }

      .st1 {
        font-size: 9px;
      }

      .st7, .st2, .st4 {
        fill: #fff;
      }

      .st8 {
        fill: #47a2da;
      }

      .st9 {
        fill: #3a3838;
      }

      .st2 {
        font-size: 4px;
      }

      .st10 {
        fill: #606161;
      }

      .st11 {
        fill: #969696;
      }

      .st12 {
        fill: none;
        stroke: #231f20;
        stroke-miterlimit: 10;
        stroke-width: .5px;
      }

      .st3 {
        font-size: 16px;
      }

      .st13 {
        fill: #897d7d;
      }

      .st4 {
        font-size: 8px;
      }
    </style>
  </defs>
  <g id="InfoAA">
    <rect id="Type_x5F_aa" class="st5" width="5.3" height="62.4"/>
    <rect id="Foto" class="st13" x="5.3" width="46.3" height="62.4"/>
    <rect id="Nombre_x5F_fondo" class="st11" x="51.7" width="52.2" height="13.4"/>
    <rect id="LoginColor" class="st10" x="51.7" y="12.9" width="42.1" height="11.4"/>
    <rect id="VariacionColor" class="st9" x="93.8" y="12.9" width="10.1" height="11.4"/>
    <rect id="TrunoColor" class="st6" x="51.7" y="24.7" width="52.2" height="37.7"/>
    <rect id="Fondo" class="st7" x="53.3" y="30.5" width="26.6" height="26.6"/>
    <rect id="QR" class="st8" x="55.9" y="33.1" width="21.3" height="21.3"/>
    <text id="Turno" class="st3" transform="translate(81.9 48.3)"><tspan x="0" y="0">T4</tspan></text>
    <text id="VariacionShift" class="st4" transform="translate(96.4 21.2)"><tspan x="0" y="0">L</tspan></text>
    <text id="Login" class="st1" transform="translate(54.9 21.7)"><tspan x="0" y="0">chuecc</tspan></text>
    <text id="Apellidos" class="st0" transform="translate(53.9 5.2)"><tspan x="0" y="0">Vasquez Chuecos,</tspan></text>
    <text id="Nombres" class="st0" transform="translate(53.9 11.1)"><tspan x="0" y="0">Carlos Alberto</tspan></text>
  </g>
  <g id="Formaciones_x5F_cuadro">
    <rect id="FNC_x5F_1" class="st10" x="103.9" y="6.2" width="24.6" height="6.2"/>
    <rect id="FNC_x5F_2" class="st10" x="128.5" y="6.2" width="24.6" height="6.2"/>
    <rect id="FNC_x5F_3" class="st10" x="153" y="6.2" width="24.6" height="6.2"/>
    <rect id="FNC_x5F_4" class="st10" x="177.6" y="6.2" width="24.6" height="6.2"/>
    <rect id="FNC_x5F_5" class="st10" x="202.2" y="6.2" width="24.6" height="6.2"/>
    <rect id="FNC_x5F_6" class="st10" x="103.9" y="18.7" width="24.6" height="6.2"/>
    <rect id="FNC_x5F_7" class="st10" x="128.5" y="18.7" width="24.6" height="6.2"/>
    <rect id="FNC_x5F_8" class="st10" x="153" y="18.7" width="24.6" height="6.2"/>
    <rect id="FNC_x5F_9" class="st10" x="177.6" y="18.7" width="24.6" height="6.2"/>
    <rect id="FNC_x5F_10" class="st10" x="202.2" y="18.7" width="24.6" height="6.2"/>
    <rect id="FNC_x5F_11" class="st10" x="103.9" y="31.2" width="24.6" height="6.2"/>
    <rect id="FNC_x5F_12" class="st10" x="128.5" y="31.2" width="24.6" height="6.2"/>
    <rect id="FNC_x5F_13" class="st10" x="153" y="31.2" width="24.6" height="6.2"/>
    <rect id="FNC_x5F_14" class="st10" x="177.6" y="31.2" width="24.6" height="6.2"/>
    <rect id="FNC_x5F_15" class="st10" x="202.2" y="31.2" width="24.6" height="6.2"/>
    <rect id="FNC_x5F_16" class="st10" x="103.9" y="43.7" width="24.6" height="6.2"/>
    <rect id="FNC_x5F_17" class="st10" x="128.5" y="43.7" width="24.6" height="6.2"/>
    <rect id="FNC_x5F_18" class="st10" x="153" y="43.7" width="24.6" height="6.2"/>
    <rect id="FNC_x5F_19" class="st10" x="177.6" y="43.7" width="24.6" height="6.2"/>
    <rect id="FNC_x5F_20" class="st10" x="202.2" y="43.7" width="24.6" height="6.2"/>
    <rect id="FNC_x5F_21" class="st10" x="103.9" y="56.1" width="24.6" height="6.2"/>
    <rect id="FNC_x5F_22" class="st10" x="128.5" y="56.1" width="24.6" height="6.2"/>
    <rect id="FNC_x5F_23" class="st10" x="153" y="56.1" width="24.6" height="6.2"/>
    <rect id="FNC_x5F_24" class="st10" x="177.6" y="56.1" width="24.6" height="6.2"/>
    <rect id="FNC_x5F_25" class="st10" x="202.2" y="56.1" width="24.6" height="6.2"/>
  </g>
  <g id="Formaciones_x5F_name">
    <g>
      <rect class="st9" x="103.9" y="0" width="24.6" height="6.2"/>
      <rect class="st9" x="128.5" y="0" width="24.6" height="6.2"/>
      <rect class="st9" x="153" y="0" width="24.6" height="6.2"/>
      <rect class="st9" x="177.6" y="0" width="24.6" height="6.2"/>
      <rect class="st9" x="202.2" y="0" width="24.6" height="6.2"/>
      <rect class="st9" x="103.9" y="12.5" width="24.6" height="6.2"/>
      <rect class="st9" x="128.5" y="12.5" width="24.6" height="6.2"/>
      <rect class="st9" x="153" y="12.5" width="24.6" height="6.2"/>
      <rect class="st9" x="177.6" y="12.5" width="24.6" height="6.2"/>
      <rect class="st9" x="202.2" y="12.5" width="24.6" height="6.2"/>
      <rect class="st9" x="103.9" y="24.9" width="24.6" height="6.2"/>
      <rect class="st9" x="128.5" y="24.9" width="24.6" height="6.2"/>
      <rect class="st9" x="153" y="24.9" width="24.6" height="6.2"/>
      <rect class="st9" x="177.6" y="24.9" width="24.6" height="6.2"/>
      <rect class="st9" x="202.2" y="24.9" width="24.6" height="6.2"/>
      <rect class="st9" x="103.9" y="37.4" width="24.6" height="6.2"/>
      <rect class="st9" x="128.5" y="37.4" width="24.6" height="6.2"/>
      <rect class="st9" x="153" y="37.4" width="24.6" height="6.2"/>
      <rect class="st9" x="177.6" y="37.4" width="24.6" height="6.2"/>
      <rect class="st9" x="202.2" y="37.4" width="24.6" height="6.2"/>
      <rect class="st9" x="103.9" y="49.9" width="24.6" height="6.2"/>
      <rect class="st9" x="128.5" y="49.9" width="24.6" height="6.2"/>
      <rect class="st9" x="153" y="49.9" width="24.6" height="6.2"/>
      <rect class="st9" x="177.6" y="49.9" width="24.6" height="6.2"/>
      <rect class="st9" x="202.2" y="49.9" width="24.6" height="6.2"/>
      <line class="st12" x1="202.2" y1="0" x2="202.2" y2="62.4"/>
      <line class="st12" x1="177.6" y1="0" x2="177.6" y2="62.4"/>
      <line class="st12" x1="153" y1="0" x2="153" y2="62.4"/>
      <line class="st12" x1="128.5" y1="0" x2="128.5" y2="62.4"/>
      <line class="st12" x1="103.9" y1="0" x2="103.9" y2="62.4"/>
    </g>
    <g id="FN_x5F_1">
      <text class="st2" transform="translate(111.6 4.7)"><tspan x="0" y="0">ICQA</tspan></text>
    </g>
    <g id="FN_x5F_2">
      <text class="st2" transform="translate(136.4 4.7)"><tspan x="0" y="0">TOM</tspan></text>
    </g>
    <g id="FN_x5F_3">
      <text class="st2" transform="translate(159.9 4.7)"><tspan x="0" y="0">DOCK</tspan></text>
    </g>
    <g id="FN_x5F_4">
      <text class="st2" transform="translate(182.3 4.7)"><tspan x="0" y="0">DECANT</tspan></text>
    </g>
    <g id="FN_x5F_5">
      <text class="st2" transform="translate(205.2 4.7)"><tspan x="0" y="0">EACH RCV</tspan></text>
    </g>
    <g id="FN_x5F_6">
      <text class="st2" transform="translate(111.6 16.6)"><tspan x="0" y="0">ICQA</tspan></text>
    </g>
    <g id="FN_x5F_7">
      <text class="st2" transform="translate(136.4 16.6)"><tspan x="0" y="0">TOM</tspan></text>
    </g>
    <g id="FN_x5F_8">
      <text class="st2" transform="translate(159.9 16.6)"><tspan x="0" y="0">DOCK</tspan></text>
    </g>
    <g id="FN_x5F_9">
      <text class="st2" transform="translate(182.3 16.6)"><tspan x="0" y="0">DECANT</tspan></text>
    </g>
    <g id="FN_x5F_10">
      <text class="st2" transform="translate(205.2 16.6)"><tspan x="0" y="0">EACH RCV</tspan></text>
    </g>
    <g id="FN_x5F_11">
      <text class="st2" transform="translate(111.6 29.2)"><tspan x="0" y="0">ICQA</tspan></text>
    </g>
    <g id="FN_x5F_12">
      <text class="st2" transform="translate(136.4 29.2)"><tspan x="0" y="0">TOM</tspan></text>
    </g>
    <g id="FN_x5F_13">
      <text class="st2" transform="translate(159.9 29.2)"><tspan x="0" y="0">DOCK</tspan></text>
    </g>
    <g id="FN_x5F_14">
      <text class="st2" transform="translate(182.3 29.2)"><tspan x="0" y="0">DECANT</tspan></text>
    </g>
    <g id="FN_x5F_15">
      <text class="st2" transform="translate(205.2 29.2)"><tspan x="0" y="0">EACH RCV</tspan></text>
    </g>
    <g id="FN_x5F_16">
      <text class="st2" transform="translate(111.6 41.9)"><tspan x="0" y="0">ICQA</tspan></text>
    </g>
    <g id="FN_x5F_17">
      <text class="st2" transform="translate(136.4 41.9)"><tspan x="0" y="0">TOM</tspan></text>
    </g>
    <g id="FN_x5F_18">
      <text class="st2" transform="translate(159.9 41.9)"><tspan x="0" y="0">DOCK</tspan></text>
    </g>
    <g id="FN_x5F_19">
      <text class="st2" transform="translate(182.3 41.9)"><tspan x="0" y="0">DECANT</tspan></text>
    </g>
    <g id="FN_x5F_20">
      <text class="st2" transform="translate(205.2 41.9)"><tspan x="0" y="0">EACH RCV</tspan></text>
    </g>
    <g id="FN_x5F_21">
      <text class="st2" transform="translate(111.6 54.3)"><tspan x="0" y="0">ICQA</tspan></text>
    </g>
    <g id="FN_x5F_22">
      <text class="st2" transform="translate(136.4 54.3)"><tspan x="0" y="0">TOM</tspan></text>
    </g>
    <g id="FN_x5F_23">
      <text class="st2" transform="translate(159.9 54.3)"><tspan x="0" y="0">DOCK</tspan></text>
    </g>
    <g id="FN_x5F_24">
      <text class="st2" transform="translate(182.3 54.3)"><tspan x="0" y="0">DECANT</tspan></text>
    </g>
    <g id="FN_x5F_25">
      <text class="st2" transform="translate(205.2 54.3)"><tspan x="0" y="0">EACH RCV</tspan></text>
    </g>
  </g>
</svg>