<?xml version="1.0" encoding="UTF-8"?>
<svg xmlns="http://www.w3.org/2000/svg" version="1.1" viewBox="0 0 21.83 21.83">
  <!-- Generator: Adobe Illustrator 29.8.4, SVG Export Plug-In . SVG Version: 2.1.1 Build 6)  -->
  <g id="Layer_3">
    <g>
      <path d="M1.49,3.25h19.06c.36,0,.65.29.65.65v15c0,.36-.29.65-.65.65H1.49c-.36,0-.65-.29-.65-.65V3.91c0-.36.29-.65.65-.65Z" fill="#0070cc"/>
      <path d="M20.55,3.63c.15,0,.28.13.28.28v15c0,.15-.13.28-.28.28H1.49c-.15,0-.28-.13-.28-.28V3.91c0-.15.13-.28.28-.28h19.06M20.55,2.88H1.49c-.57,0-1.03.46-1.03,1.03v15c0,.57.46,1.03,1.03,1.03h19.06c.57,0,1.03-.46,1.03-1.03V3.91c0-.57-.46-1.03-1.03-1.03h0Z"/>
    </g>
  </g>
  <g id="Layer_2">
    <path d="M12.25,8.21c0-.44.36-.8.8-.8h5.33c.44,0,.8.36.8.8s-.36.8-.8.8h-5.33c-.44,0-.8-.36-.8-.8Z" fill="#fff"/>
    <path d="M13.31,11.41c0-.44.36-.8.8-.8h4.26c.44,0,.8.36.8.8s-.36.8-.8.8h-4.26c-.44,0-.8-.36-.8-.8Z" fill="#fff"/>
    <path d="M14.38,14.6c0-.44.36-.8.8-.8h3.2c.44,0,.8.36.8.8s-.36.8-.8.8h-3.2c-.44,0-.8-.36-.8-.8Z" fill="#fff"/>
    <path d="M7.72,10.34c1.18,0,2.13-.95,2.13-2.13s-.95-2.13-2.13-2.13-2.13.95-2.13,2.13.95,2.13,2.13,2.13Z" fill="#fff"/>
    <path d="M7.72,16.74c4.26,0,4.26-.95,4.26-2.13s-1.91-2.13-4.26-2.13-4.26.95-4.26,2.13,0,2.13,4.26,2.13Z" fill="#fff"/>
  </g>
</svg>