<?xml version="1.0" encoding="UTF-8"?>
<svg xmlns="http://www.w3.org/2000/svg" version="1.1" viewBox="0 0 360 93.54">
  <!-- Generator: Adobe Illustrator 29.8.4, SVG Export Plug-In . SVG Version: 2.1.1 Build 6)  -->
  <defs>
    <style>
      .st0 {
        font-size: 6px;
      }

      .st0, .st1, .st2, .st3, .st4 {
        font-family: AmazonEmber-Regular, 'Amazon Ember';
      }

      .st0, .st1, .st5 {
        fill: #fff;
      }

      .st6 {
        fill: #29ade4;
      }

      .st1 {
        font-size: 12px;
      }

      .st7 {
        fill: #c2c1c0;
      }

      .st2 {
        font-size: 24.01px;
      }

      .st2, .st3, .st4 {
        fill: #231f20;
      }

      .st3 {
        font-size: 7.5px;
      }

      .st8 {
        fill: #47a2da;
      }

      .st9 {
        fill: #3a3838;
      }

      .st10 {
        fill: #606161;
      }

      .st11 {
        fill: #969696;
      }

      .st4 {
        font-size: 13.5px;
      }

      .st12 {
        fill: none;
        stroke: #231f20;
        stroke-miterlimit: 10;
        stroke-width: .75px;
      }

      .st13 {
        fill: #897d7d;
      }
    </style>
  </defs>
  <g id="Layer_4">
    <rect class="st5" width="360" height="93.54"/>
  </g>
  <g id="Layer_7">
    <rect id="Type_x5F_aa" class="st6" y="-.02" width="6.89" height="93.56"/>
    <rect id="Foto" class="st13" x="6.89" y="-.02" width="69.53" height="93.56"/>
    <rect id="Nombre_x5F_fondo" class="st11" x="76.42" y="-.02" width="85.31" height="20.07"/>
    <rect id="LoginColor" class="st10" x="76.42" y="20.05" width="70.12" height="17.04"/>
    <rect id="VariacionColor" class="st9" x="146.54" y="20.05" width="15.19" height="17.04"/>
    <rect id="TrunoColor" class="st7" x="76.42" y="36.98" width="85.31" height="56.56"/>
    <rect id="Fondo" class="st5" x="78.8" y="45.68" width="39.94" height="39.94"/>
    <rect id="QR" class="st8" x="82.82" y="49.7" width="31.9" height="31.9"/>
    <text id="Turno" class="st2" transform="translate(121.74 72.44)"><tspan x="0" y="0">T4</tspan></text>
    <text id="VariacionShift" class="st1" transform="translate(150.45 32.53)"><tspan x="0" y="0">L</tspan></text>
    <text id="Login" class="st4" transform="translate(81.23 33.24)"><tspan x="0" y="0">chuecc</tspan></text>
    <text id="Apellidos" class="st3" transform="translate(79.73 7.77)"><tspan x="0" y="0">Vasquez Chuecos,</tspan></text>
    <text id="Nombres" class="st3" transform="translate(79.73 16.59)"><tspan x="0" y="0">Carlos Alberto</tspan></text>
    <rect id="FNC_x5F_1" class="st10" x="161.73" y="9.34" width="39.65" height="9.36"/>
    <rect id="FNC_x5F_2" class="st10" x="201.38" y="9.34" width="39.65" height="9.36"/>
    <rect id="FNC_x5F_3" class="st10" x="241.04" y="9.34" width="39.65" height="9.36"/>
    <rect id="FNC_x5F_4" class="st10" x="280.69" y="9.34" width="39.65" height="9.36"/>
    <rect id="FNC_x5F_5" class="st10" x="320.35" y="9.34" width="39.65" height="9.36"/>
    <rect id="FNC_x5F_6" class="st10" x="161.73" y="28.05" width="39.65" height="9.36"/>
    <rect id="FNC_x5F_7" class="st10" x="201.38" y="28.05" width="39.65" height="9.36"/>
    <rect id="FNC_x5F_8" class="st10" x="241.04" y="28.05" width="39.65" height="9.36"/>
    <rect id="FNC_x5F_9" class="st10" x="280.69" y="28.05" width="39.65" height="9.36"/>
    <rect id="FNC_x5F_10" class="st10" x="320.35" y="28.05" width="39.65" height="9.36"/>
    <rect id="FNC_x5F_11" class="st10" x="161.73" y="46.76" width="39.65" height="9.36"/>
    <rect id="FNC_x5F_12" class="st10" x="201.38" y="46.76" width="39.65" height="9.36"/>
    <rect id="FNC_x5F_13" class="st10" x="241.04" y="46.76" width="39.65" height="9.36"/>
    <rect id="FNC_x5F_14" class="st10" x="280.69" y="46.76" width="39.65" height="9.36"/>
    <rect id="FNC_x5F_15" class="st10" x="320.35" y="46.76" width="39.65" height="9.36"/>
    <rect id="FNC_x5F_16" class="st10" x="161.73" y="65.47" width="39.65" height="9.36"/>
    <rect id="FNC_x5F_17" class="st10" x="201.38" y="65.47" width="39.65" height="9.36"/>
    <rect id="FNC_x5F_18" class="st10" x="241.04" y="65.47" width="39.65" height="9.36"/>
    <rect id="FNC_x5F_19" class="st10" x="280.69" y="65.47" width="39.65" height="9.36"/>
    <rect id="FNC_x5F_20" class="st10" x="320.35" y="65.47" width="39.65" height="9.36"/>
    <rect id="FNC_x5F_21" class="st10" x="161.73" y="84.19" width="39.65" height="9.36"/>
    <rect id="FNC_x5F_22" class="st10" x="201.38" y="84.19" width="39.65" height="9.36"/>
    <rect id="FNC_x5F_23" class="st10" x="241.04" y="84.19" width="39.65" height="9.36"/>
    <rect id="FNC_x5F_24" class="st10" x="280.69" y="84.19" width="39.65" height="9.36"/>
    <rect id="FNC_x5F_25" class="st10" x="320.35" y="84.19" width="39.65" height="9.36"/>
  </g>
  <g id="Layer_8">
    <rect class="st9" x="161.73" y="-.02" width="39.65" height="9.36"/>
    <rect class="st9" x="201.38" y="-.02" width="39.65" height="9.36"/>
    <rect class="st9" x="241.04" y="-.02" width="39.65" height="9.36"/>
    <rect class="st9" x="280.69" y="-.02" width="39.65" height="9.36"/>
    <rect class="st9" x="320.35" y="-.02" width="39.65" height="9.36"/>
    <rect class="st9" x="161.73" y="18.69" width="39.65" height="9.36"/>
    <rect class="st9" x="201.38" y="18.69" width="39.65" height="9.36"/>
    <rect class="st9" x="241.04" y="18.69" width="39.65" height="9.36"/>
    <rect class="st9" x="280.69" y="18.69" width="39.65" height="9.36"/>
    <rect class="st9" x="320.35" y="18.69" width="39.65" height="9.36"/>
    <rect class="st9" x="161.73" y="37.4" width="39.65" height="9.36"/>
    <rect class="st9" x="201.38" y="37.4" width="39.65" height="9.36"/>
    <rect class="st9" x="241.04" y="37.4" width="39.65" height="9.36"/>
    <rect class="st9" x="280.69" y="37.4" width="39.65" height="9.36"/>
    <rect class="st9" x="320.35" y="37.4" width="39.65" height="9.36"/>
    <rect class="st9" x="161.73" y="56.12" width="39.65" height="9.36"/>
    <rect class="st9" x="201.38" y="56.12" width="39.65" height="9.36"/>
    <rect class="st9" x="241.04" y="56.12" width="39.65" height="9.36"/>
    <rect class="st9" x="280.69" y="56.12" width="39.65" height="9.36"/>
    <rect class="st9" x="320.35" y="56.12" width="39.65" height="9.36"/>
    <rect class="st9" x="161.73" y="74.83" width="39.65" height="9.36"/>
    <rect class="st9" x="201.38" y="74.83" width="39.65" height="9.36"/>
    <rect class="st9" x="241.04" y="74.83" width="39.65" height="9.36"/>
    <rect class="st9" x="280.69" y="74.83" width="39.65" height="9.36"/>
    <rect class="st9" x="320.35" y="74.83" width="39.65" height="9.36"/>
    <line class="st12" x1="320.35" y1="-.02" x2="320.35" y2="93.54"/>
    <line class="st12" x1="280.69" y1="-.02" x2="280.69" y2="93.54"/>
    <line class="st12" x1="241.04" y1="-.02" x2="241.04" y2="93.54"/>
    <line class="st12" x1="201.38" y1="-.02" x2="201.38" y2="93.54"/>
    <line class="st12" x1="161.73" y1="-.02" x2="161.73" y2="93.54"/>
  </g>
  <g id="tex">
    <g id="FN_x5F_1">
      <text class="st0" transform="translate(174.64 6.96)"><tspan x="0" y="0">ICQA</tspan></text>
    </g>
    <g id="FN_x5F_2">
      <text class="st0" transform="translate(214.63 6.96)"><tspan x="0" y="0">TOM</tspan></text>
    </g>
    <g id="FN_x5F_3">
      <text class="st0" transform="translate(252.79 6.96)"><tspan x="0" y="0">DOCK</tspan></text>
    </g>
    <g id="FN_x5F_4">
      <text class="st0" transform="translate(289.15 6.96)"><tspan x="0" y="0">DECANT</tspan></text>
    </g>
    <g id="FN_x5F_5">
      <text class="st0" transform="translate(326.22 6.96)"><tspan x="0" y="0">EACH RCV</tspan></text>
    </g>
    <g id="FN_x5F_6">
      <text class="st0" transform="translate(174.64 24.94)"><tspan x="0" y="0">ICQA</tspan></text>
    </g>
    <g id="FN_x5F_7">
      <text class="st0" transform="translate(214.63 24.94)"><tspan x="0" y="0">TOM</tspan></text>
    </g>
    <g id="FN_x5F_8">
      <text class="st0" transform="translate(252.79 24.94)"><tspan x="0" y="0">DOCK</tspan></text>
    </g>
    <g id="FN_x5F_9">
      <text class="st0" transform="translate(289.15 24.94)"><tspan x="0" y="0">DECANT</tspan></text>
    </g>
    <g id="FN_x5F_10">
      <text class="st0" transform="translate(326.22 24.94)"><tspan x="0" y="0">EACH RCV</tspan></text>
    </g>
    <g id="FN_x5F_11">
      <text class="st0" transform="translate(174.64 43.76)"><tspan x="0" y="0">ICQA</tspan></text>
    </g>
    <g id="FN_x5F_12">
      <text class="st0" transform="translate(214.63 43.76)"><tspan x="0" y="0">TOM</tspan></text>
    </g>
    <g id="FN_x5F_13">
      <text class="st0" transform="translate(252.79 43.76)"><tspan x="0" y="0">DOCK</tspan></text>
    </g>
    <g id="FN_x5F_14">
      <text class="st0" transform="translate(289.15 43.76)"><tspan x="0" y="0">DECANT</tspan></text>
    </g>
    <g id="FN_x5F_15">
      <text class="st0" transform="translate(326.22 43.76)"><tspan x="0" y="0">EACH RCV</tspan></text>
    </g>
    <g id="FN_x5F_16">
      <text class="st0" transform="translate(174.64 62.78)"><tspan x="0" y="0">ICQA</tspan></text>
    </g>
    <g id="FN_x5F_17">
      <text class="st0" transform="translate(214.63 62.78)"><tspan x="0" y="0">TOM</tspan></text>
    </g>
    <g id="FN_x5F_18">
      <text class="st0" transform="translate(252.79 62.78)"><tspan x="0" y="0">DOCK</tspan></text>
    </g>
    <g id="FN_x5F_19">
      <text class="st0" transform="translate(289.15 62.78)"><tspan x="0" y="0">DECANT</tspan></text>
    </g>
    <g id="FN_x5F_20">
      <text class="st0" transform="translate(326.22 62.78)"><tspan x="0" y="0">EACH RCV</tspan></text>
    </g>
    <g id="FN_x5F_21">
      <text class="st0" transform="translate(174.64 81.39)"><tspan x="0" y="0">ICQA</tspan></text>
    </g>
    <g id="FN_x5F_22">
      <text class="st0" transform="translate(214.63 81.39)"><tspan x="0" y="0">TOM</tspan></text>
    </g>
    <g id="FN_x5F_23">
      <text class="st0" transform="translate(252.79 81.39)"><tspan x="0" y="0">DOCK</tspan></text>
    </g>
    <g id="FN_x5F_24">
      <text class="st0" transform="translate(289.15 81.39)"><tspan x="0" y="0">DECANT</tspan></text>
    </g>
    <g id="FN_x5F_25">
      <text class="st0" transform="translate(326.22 81.39)"><tspan x="0" y="0">EACH RCV</tspan></text>
    </g>
  </g>
</svg>