<?xml version="1.0" encoding="UTF-8"?>
<svg id="Layer_1" xmlns="http://www.w3.org/2000/svg" width="302.8" height="324.4" version="1.1" viewBox="0 0 302.8 324.4">
  <!-- Generator: Adobe Illustrator 29.2.0, SVG Export Plug-In . SVG Version: 2.1.0 Build 108)  -->
  <defs>
    <style>
      .st0 {
        font-size: 47.6px;
      }

      .st0, .st1, .st2, .st3 {
        fill: #102666;
      }

      .st0, .st3 {
        font-family: AmazonEmber-Medium, 'AmazonEmber Medium';
        font-weight: 500;
      }

      .st4 {
        fill: #7edbfc;
      }

      .st5 {
        fill: #000c51;
      }

      .st6 {
        fill: #5fa7d1;
      }

      .st2 {
        stroke: #7edbfc;
        stroke-miterlimit: 10;
        stroke-width: 5.2px;
      }

      .st7 {
        fill: #2f5a91;
      }

      .st3 {
        font-size: 67.7px;
      }

      .st8 {
        fill: #ffd2d4;
      }
    </style>
  </defs>
  <path class="st1" d="M201,103.3c-1.4,0-2.6.8-3.2,2.1-8.1,20.3-26.9,35.2-49.4,37.5-.2,0-.4,0-.5,0-.8,0-1.5.1-2.3.2-.2,0-.5,0-.7,0-.9,0-1.9,0-2.8,0s-2.2,0-3.3,0c-.5,0-1,0-1.5-.1-.6,0-1.2,0-1.8-.2-.2,0-.3,0-.5,0v34c0,1.9,1.5,3.4,3.4,3.4h8.2c1.9,0,3.4-1.5,3.4-3.4v-15c0-1.7,1.2-3.1,2.9-3.4,28.5-4.1,52-24.1,61-50.7.8-2.2-.9-4.6-3.2-4.6h-9.8Z"/>
  <path class="st1" d="M217.4,73.3c-1.8-13.8-7.3-26.4-15.5-36.8-1.3-1.6-3.6-1.7-5.1-.3-2.7,2.7-5.6,5.6-8.5,8.5l-.3.3-.2.2c8.8,10.5,14,23.9,14.2,38.5,0,1.3,0,2.6-.2,3.9-.1,2,1.4,3.7,3.4,3.7h30.4c1.9,0,3.4-1.5,3.4-3.4v-8.2c0-1.9-1.5-3.4-3.4-3.4h-14.9c-1.7,0-3.1-1.3-3.4-3Z"/>
  <path class="st1" d="M122,139.9v-.3c-6.7-2.5-12.9-6.1-18.3-10.6l-.2.2-.3.3c-3.9,3.9-7.7,7.6-11.2,11.1,8.8,7.7,19.3,13.3,31,16.3v-16.7c-.3-.1-.7-.2-1-.3Z"/>
  <path d="M88.3,137h0s0,0,.1.1h0s0,0-.1-.1Z"/>
  <path class="st8" d="M142,7.3c-.3,0-.6,0-.9,0v16c.3,0,.6,0,.9,0,14.8,0,28.3,5.3,38.7,14.2l11.4-11.4c-13.4-11.7-30.9-18.8-50.1-18.8Z"/>
  <path class="st6" d="M96.7,43.9l-11.3-11.3c-11.3,12.6-18.5,29.1-19.3,47.2h16c.8-13.7,6.2-26.2,14.6-35.9Z"/>
  <path class="st7" d="M66.1,84.8c.4,18.6,7.4,35.6,18.8,48.6l11.3-11.3c-8.5-10.1-13.8-23-14.2-37.2h-16Z"/>
  <path class="st4" d="M88.9,29l11.3,11.3c9.5-9.2,22-15.4,36-16.7V7.5c-18.3,1.4-34.9,9.3-47.3,21.5Z"/>
  <path class="st5" d="M178.8,83.6c0,5.2,0,10.5,0,15.7,0,3-1.3,5.3-3.9,6.8-9.9,5.8-19.7,11.6-29.6,17.4-2.5,1.5-5.1,1.5-7.6,0-10-5.9-20-11.8-30-17.7-2.3-1.4-3.5-3.6-3.5-6.3,0-6.3,0-12.7,0-19,0-4.2,0-8.5,0-12.7,0-3.5,1.5-6.1,4.6-7.8,9.5-5.3,19-10.7,28.5-16,2.8-1.6,5.6-1.6,8.4,0,9.5,5.3,19,10.7,28.5,16,3,1.7,4.5,4.3,4.6,7.8,0,5.2,0,10.5,0,15.7ZM137.4,99.8c0,2.5,0,5,0,7.5,0,1.9,0,3.8,0,5.7,0,2.3,2.3,4.1,4.6,3.8,2.2-.3,3.6-2,3.6-4.3,0-8.6,0-17.1,0-25.7,0-.5.1-.7.5-.9,5.3-3,10.6-6,15.9-8.9,2.1-1.2,4.3-2.4,6.4-3.6,1.5-.9,2.1-2.2,2-3.9-.1-1.6-.9-2.7-2.3-3.4-1.4-.7-2.8-.5-4.1.3-7.3,4.1-14.6,8.2-21.9,12.3-.4.2-.7.2-1.1,0-3-1.7-6-3.4-9.1-5.1-4.3-2.4-8.6-4.9-13-7.3-1.8-1-3.7-.9-5,.3-2.2,1.9-1.8,5.3.7,6.7,7.4,4.2,14.8,8.3,22.2,12.5.4.2.6.5.6,1,0,4.3,0,8.7,0,13Z"/>
  <text class="st3" transform="translate(9.5 251)"><tspan x="0" y="0">INBOUND</tspan></text>
  <text class="st0" transform="translate(82.8 303.4)"><tspan x="0" y="0">SCOPE</tspan></text>
  <line class="st2" x1="235.4" y1="288.4" x2="293.4" y2="288.4"/>
  <line class="st2" x1="6.4" y1="288.8" x2="64.4" y2="288.8"/>
</svg>