<?xml version="1.0" encoding="UTF-8"?>
<svg xmlns="http://www.w3.org/2000/svg" width="120" height="160" version="1.1" viewBox="0 0 120 160">
  <!-- Generator: Adobe Illustrator 29.2.0, SVG Export Plug-In . SVG Version: 2.1.0 Build 108)  -->
  <defs>
    <style>
      .st0 {
        fill: #7edbfc;
      }

      .st1 {
        fill: #bcbfc1;
      }

      .st2 {
        font-family: MyriadPro-Regular, 'Myriad Pro';
        font-size: 224.6px;
      }

      .st3, .st4 {
        fill: #102666;
      }

      .st5 {
        fill: #000c51;
      }

      .st6 {
        fill: #5fa7d1;
      }

      .st4 {
        stroke: #7edbfc;
        stroke-miterlimit: 10;
        stroke-width: 5.2px;
      }

      .st7 {
        display: none;
      }

      .st8 {
        fill: #2f5a91;
      }

      .st9 {
        fill: #ffd2d4;
      }

      .st10 {
        fill: #657785;
      }
    </style>
  </defs>
  <g id="Layer_1" class="st7">
    <text class="st2" transform="translate(977 -187)"><tspan x="0" y="0">IB </tspan></text>
    <path d="M719.9-10.9c-.7,2.1-169.7,169.7-169.7,169.7L719.9-10.9Z"/>
  </g>
  <g id="Layer_5" class="st7">
    <g>
      <path class="st3" d="M391.6,56.7c-1.4,0-2.6.8-3.2,2.1-8.1,20.3-26.9,35.2-49.4,37.5-.2,0-.4,0-.5,0-.8,0-1.5.1-2.3.2-.2,0-.5,0-.7,0-.9,0-1.9,0-2.8,0s-2.2,0-3.3,0c-.5,0-1,0-1.5-.1-.6,0-1.2,0-1.8-.2-.2,0-.3,0-.5,0v34c0,1.9,1.5,3.4,3.4,3.4h8.2c1.9,0,3.4-1.5,3.4-3.4v-15c0-1.7,1.2-3.1,2.9-3.4,28.5-4.1,52-24.1,61-50.7s-.9-4.6-3.2-4.6h-9.8Z"/>
      <path class="st3" d="M408,26.7c-1.8-13.8-7.3-26.4-15.5-36.8s-3.6-1.7-5.1-.3c-2.7,2.7-5.6,5.6-8.5,8.5l-.3.3-.2.2c8.8,10.5,14,23.9,14.2,38.5,0,1.3,0,2.6-.2,3.9-.1,2,1.4,3.7,3.4,3.7h30.4c1.9,0,3.4-1.5,3.4-3.4v-8.2c0-1.9-1.5-3.4-3.4-3.4h-14.9c-1.7,0-3.1-1.3-3.4-3Z"/>
      <path class="st3" d="M312.7,93.3v-.3c-6.7-2.5-12.9-6.1-18.3-10.6l-.2.2-.3.3c-3.9,3.9-7.7,7.6-11.2,11.1,8.8,7.7,19.3,13.3,31,16.3v-16.7c-.3-.1-.7-.2-1-.3Z"/>
      <path d="M278.9,90.4h0s0,0,.1.1h0s0,0-.1-.1Z"/>
      <path class="st9" d="M332.7-39.3c-.3,0-.6,0-.9,0v16c.3,0,.6,0,.9,0,14.8,0,28.3,5.3,38.7,14.2l11.4-11.4c-13.4-11.7-30.9-18.8-50.1-18.8Z"/>
      <path class="st6" d="M287.4-2.7l-11.3-11.3c-11.3,12.6-18.5,29.1-19.3,47.2h16c.8-13.7,6.2-26.2,14.6-35.9Z"/>
      <path class="st8" d="M256.7,38.2c.4,18.6,7.4,35.6,18.8,48.6l11.3-11.3c-8.5-10.1-13.8-23-14.2-37.2h-16Z"/>
      <path class="st0" d="M279.5-17.6l11.3,11.3c9.5-9.2,22-15.4,36-16.7v-16.1c-18.3,1.4-34.9,9.3-47.3,21.5Z"/>
      <path class="st5" d="M369.4,37c0,5.2,0,10.5,0,15.7,0,3-1.3,5.3-3.9,6.8-9.9,5.8-19.7,11.6-29.6,17.4-2.5,1.5-5.1,1.5-7.6,0-10-5.9-20-11.8-30-17.7-2.3-1.4-3.5-3.6-3.5-6.3,0-6.3,0-12.7,0-19,0-4.2,0-8.5,0-12.7,0-3.5,1.5-6.1,4.6-7.8,9.5-5.3,19-10.7,28.5-16,2.8-1.6,5.6-1.6,8.4,0,9.5,5.3,19,10.7,28.5,16,3,1.7,4.5,4.3,4.6,7.8,0,5.2,0,10.5,0,15.7ZM328,53.2c0,2.5,0,5,0,7.5,0,1.9,0,3.8,0,5.7,0,2.3,2.3,4.1,4.6,3.8,2.2-.3,3.6-2,3.6-4.3,0-8.6,0-17.1,0-25.7,0-.5.1-.7.5-.9,5.3-3,10.6-6,15.9-8.9,2.1-1.2,4.3-2.4,6.4-3.6,1.5-.9,2.1-2.2,2-3.9-.1-1.6-.9-2.7-2.3-3.4-1.4-.7-2.8-.5-4.1.3-7.3,4.1-14.6,8.2-21.9,12.3-.4.2-.7.2-1.1,0-3-1.7-6-3.4-9.1-5.1-4.3-2.4-8.6-4.9-13-7.3-1.8-1-3.7-.9-5,.3-2.2,1.9-1.8,5.3.7,6.7,7.4,4.2,14.8,8.3,22.2,12.5.4.2.6.5.6,1,0,4.3,0,8.7,0,13Z"/>
      <g>
        <path class="st3" d="M211.2,158.8v45.6h-5.9v-45.6h5.9Z"/>
        <path class="st3" d="M221.5,204.4v-45.6h6.4l14.6,23.1c3.4,5.3,6,10.2,8.2,14.8h.1c-.5-6.2-.7-11.7-.7-18.8v-19.1h5.5v45.6h-6l-14.5-23.1c-3.2-5.1-6.2-10.3-8.5-15.2h-.2c.3,5.8.5,11.3.5,18.9v19.5h-5.5Z"/>
        <path class="st3" d="M266,159.4c2.6-.5,6.6-.9,10.8-.9,5.9,0,9.7,1,12.5,3.3,2.4,1.8,3.8,4.5,3.8,8.1s-2.9,8.3-7.7,10h0c4.3,1.2,9.4,4.8,9.4,11.6s-1.6,6.9-3.9,9.1c-3.2,2.9-8.3,4.3-15.8,4.3s-7.2-.3-9.1-.5v-44.9ZM271.9,178.1h5.3c6.2,0,9.9-3.2,9.9-7.6s-4.1-7.4-10-7.4-4.3.2-5.2.4v14.7ZM271.9,199.9c1.2.2,2.8.3,4.9.3,6.1,0,11.7-2.2,11.7-8.9s-5.3-8.8-11.8-8.8h-4.9v17.4Z"/>
        <path class="st3" d="M341.7,181.1c0,15.7-9.5,24-21.2,24s-20.5-9.3-20.5-23.1,9-24,21.2-24,20.5,9.5,20.5,23.1ZM306.3,181.9c0,9.7,5.3,18.5,14.5,18.5s14.6-8.6,14.6-18.9-4.7-18.5-14.5-18.5-14.6,9-14.6,19Z"/>
        <path class="st3" d="M355.2,158.8v27c0,10.2,4.5,14.5,10.6,14.5s11.1-4.5,11.1-14.5v-27h6v26.6c0,14-7.4,19.8-17.3,19.8s-16.4-5.3-16.4-19.5v-26.9h6Z"/>
        <path class="st3" d="M393.1,204.4v-45.6h6.4l14.6,23.1c3.4,5.3,6,10.2,8.2,14.8h.1c-.5-6.2-.7-11.7-.7-18.8v-19.1h5.5v45.6h-6l-14.5-23.1c-3.2-5.1-6.2-10.3-8.5-15.2h-.2c.3,5.8.5,11.3.5,18.9v19.5h-5.5Z"/>
        <path class="st3" d="M437.6,159.4c3.6-.5,7.9-.9,12.5-.9,8.5,0,14.5,2,18.5,5.7,4.1,3.7,6.4,9,6.4,16.4s-2.3,13.5-6.6,17.7c-4.3,4.3-11.3,6.6-20.2,6.6s-7.7-.2-10.7-.5v-44.9ZM443.5,199.7c1.5.3,3.7.3,6,.3,12.6,0,19.4-7,19.4-19.4,0-10.8-6-17.6-18.5-17.6s-5.3.3-6.9.6v36Z"/>
      </g>
      <g>
        <path class="st3" d="M276.9,251.7c1.9,1.1,4.6,2.1,7.4,2.1,4.2,0,6.7-2.2,6.7-5.5s-1.7-4.7-6-6.4c-5.2-1.9-8.5-4.6-8.5-9.1s4.1-8.7,10.4-8.7,5.7.8,7.1,1.6l-1.1,3.4c-1-.6-3.2-1.5-6.1-1.5-4.4,0-6,2.6-6,4.8s2,4.5,6.4,6.2c5.4,2.1,8.2,4.7,8.2,9.4s-3.7,9.2-11.2,9.2-6.5-.9-8.2-2l1-3.5Z"/>
        <path class="st3" d="M323.4,255.7c-1.5.8-4.6,1.5-8.5,1.5-9,0-15.9-5.7-15.9-16.2s6.8-16.9,16.8-16.9,6.5.9,7.6,1.4l-1,3.4c-1.6-.8-3.8-1.3-6.5-1.3-7.5,0-12.5,4.8-12.5,13.2s4.5,12.9,12.3,12.9,5.1-.5,6.8-1.3l.9,3.3Z"/>
        <path class="st3" d="M355,240.4c0,11-6.7,16.9-14.9,16.9s-14.4-6.6-14.4-16.3,6.3-16.9,14.9-16.9,14.4,6.7,14.4,16.2ZM330.1,240.9c0,6.9,3.7,13,10.2,13s10.3-6,10.3-13.3-3.3-13-10.2-13-10.3,6.3-10.3,13.4Z"/>
        <path class="st3" d="M360.4,225.1c2-.3,4.6-.6,8-.6s7.1,1,9,2.7c1.8,1.5,2.8,3.9,2.8,6.7s-.9,5.2-2.5,6.9c-2.2,2.3-5.8,3.5-9.8,3.5s-2.4,0-3.3-.3v12.9h-4.1v-31.7ZM364.6,240.6c.9.2,2,.3,3.4.3,5,0,8-2.4,8-6.9s-3-6.3-7.6-6.3-3.2.1-3.9.3v12.5Z"/>
        <path class="st3" d="M402.4,241.7h-12.5v11.6h13.9v3.5h-18v-32.1h17.3v3.5h-13.2v10.1h12.5v3.4Z"/>
      </g>
      <line class="st4" x1="426" y1="241.8" x2="484" y2="241.8"/>
      <line class="st4" x1="197" y1="242.2" x2="255" y2="242.2"/>
    </g>
  </g>
  <g id="Layer_8">
    <rect class="st1" x=".3" y=".5" width="120" height="160"/>
  </g>
  <g id="Layer_7">
    <ellipse class="st10" cx="59.9" cy="76" rx="32.5" ry="25"/>
    <path class="st10" d="M120.3,150.4v10.1H.3v-12.4c10-26,32.9-44.1,59.6-44.1s50.9,19.2,60.4,46.4Z"/>
  </g>
</svg>